<?xml version="1.0" encoding="UTF-8"?>
<!DOCTYPE svg PUBLIC "-//W3C//DTD SVG 1.1//EN" "http://www.w3.org/Graphics/SVG/1.1/DTD/svg11.dtd">
<!-- Creator: CorelDRAW X8 -->
<svg xmlns="http://www.w3.org/2000/svg" xml:space="preserve" width="86.6986mm" height="86.6986mm" version="1.1" style="shape-rendering:geometricPrecision; text-rendering:geometricPrecision; image-rendering:optimizeQuality; fill-rule:evenodd; clip-rule:evenodd"
viewBox="0 0 8670 8670"
 xmlns:xlink="http://www.w3.org/1999/xlink">
 <defs>
  <style type="text/css">
   <![CDATA[
    .fil6 {fill:black}
    .fil12 {fill:#2C384A}
    .fil0 {fill:#2F495A}
    .fil5 {fill:#3D4D66}
    .fil3 {fill:#3D4E66}
    .fil2 {fill:#42667E}
    .fil11 {fill:#4F4F4F}
    .fil15 {fill:#576E91}
    .fil17 {fill:#9C7850}
    .fil10 {fill:#B6B6B6}
    .fil18 {fill:#B7B7B7}
    .fil8 {fill:#BFD4F1}
    .fil1 {fill:#C1C1C1}
    .fil9 {fill:#D1E0F5}
    .fil7 {fill:#E6EEF9}
    .fil14 {fill:#E8DAB8}
    .fil4 {fill:#FEFEFE}
    .fil13 {fill:url(#id0)}
    .fil16 {fill:url(#id1)}
   ]]>
  </style>
  <linearGradient id="id0" gradientUnits="userSpaceOnUse" x1="5296.25" y1="1992.54" x2="6729.58" y2="4274.28">
   <stop offset="0" style="stop-opacity:1; stop-color:#FFAA00"/>
   <stop offset="0.25098" style="stop-opacity:1; stop-color:#F79633"/>
   <stop offset="0.521569" style="stop-opacity:1; stop-color:#FDBE47"/>
   <stop offset="0.760784" style="stop-opacity:1; stop-color:#A6672E"/>
   <stop offset="1" style="stop-opacity:1; stop-color:#FFCB64"/>
  </linearGradient>
  <linearGradient id="id1" gradientUnits="userSpaceOnUse" x1="7404.53" y1="2028.65" x2="6674.78" y2="1296.55">
   <stop offset="0" style="stop-opacity:1; stop-color:#E95052"/>
   <stop offset="0.329412" style="stop-opacity:1; stop-color:#4D0000"/>
   <stop offset="0.65098" style="stop-opacity:1; stop-color:#800808"/>
   <stop offset="1" style="stop-opacity:1; stop-color:#E53924"/>
  </linearGradient>
 </defs>
 <g id="Layer_x0020_1">
  <metadata id="CorelCorpID_0Corel-Layer"/>
  <path class="fil0" d="M4013 5387c38,-6 58,0 90,13 144,34 299,90 446,112 23,-13 61,-18 90,-26 16,-4 32,-7 48,-12 40,-11 25,0 38,-24 -71,-14 -477,-114 -508,-142 -28,10 -67,25 -99,36 -36,12 -82,20 -105,43z"/>
  <path class="fil0" d="M5270 4800c112,-4 343,105 472,115l24 -97c-32,-22 -127,-40 -170,-52 -30,-8 -54,-14 -86,-23 -85,-23 -76,-7 -84,-39l-72 49c-16,9 -24,14 -38,21 -6,3 -16,8 -22,11l-24 15z"/>
  <path class="fil1" d="M4495 1710c-35,-17 -110,-14 -158,-27 -141,-42 -226,-145 -265,-294 -57,-219 -2,-466 103,-618 234,-343 593,-283 695,-53 49,112 33,262 59,322 80,-32 55,-452 -223,-539 -717,-224 -1026,1193 -278,1253 56,5 72,10 67,-44z"/>
  <path class="fil1" d="M5442 1920l3 -34c-36,-20 -117,-16 -163,-30 -55,-16 -97,-42 -133,-71 -268,-212 -170,-915 227,-1057 105,-37 247,-22 332,33 77,49 124,132 146,252 5,32 13,178 17,188 13,35 43,20 49,-15 3,-19 -3,-80 -4,-102 -22,-244 -123,-407 -365,-429 -562,-50 -806,890 -416,1187 54,42 222,120 307,78z"/>
  <path class="fil2" d="M1683 5454l3534 959 23 -104c-297,-75 -589,-164 -885,-241 -219,-57 -2564,-711 -2647,-717l-25 103z"/>
  <path class="fil2" d="M3044 1914c44,-3 562,143 650,166l1304 347c109,29 219,58 328,88 53,14 106,28 160,42 28,8 51,14 81,21 37,10 62,10 80,34l9 -11c8,-11 4,-6 11,-16l51 -81 -2655 -702c-8,37 -24,73 -19,112z"/>
  <path class="fil2" d="M2786 2543c51,-3 2013,544 2351,634 10,3 31,7 41,11 44,16 19,-2 26,21 16,-14 31,-36 44,-53 17,-22 32,-38 47,-56 -68,-1 -1954,-525 -2171,-585 -81,-22 -238,-74 -313,-83 -18,27 -29,75 -25,111z"/>
  <path class="fil2" d="M4574 3887l65 -68c7,-6 10,-8 15,-12l12 -8c1,-1 4,-3 6,-5 -63,-1 -211,-49 -279,-67l-817 -217c-99,-25 -1018,-277 -1087,-287l-26 105 2111 559z"/>
  <path class="fil2" d="M2207 3920l2 40 2047 555 2 25c17,-16 23,-41 33,-62l27 -49c1,-2 3,-4 4,-6l8 -10c-39,2 -825,-208 -876,-232l-1221 -328c-6,22 -11,49 -26,67z"/>
  <path class="fil2" d="M3807 5326c13,-13 3,-1 17,-20 7,-12 10,-18 15,-27 15,-25 22,-32 32,-57l-1906 -500 -24 102c302,91 627,168 935,250 117,30 893,226 931,252z"/>
  <path class="fil2" d="M4549 5512l0 8 957 248 25 -103 -770 -204c-19,-5 -13,-3 -36,-11 -13,24 2,13 -38,24 -16,5 -32,8 -48,12 -29,8 -67,13 -90,26z"/>
  <path class="fil3" d="M5115 1389c65,8 212,65 283,88 95,32 184,61 280,93 68,23 521,163 539,189 19,-17 261,-374 270,-396 -35,-7 -82,-23 -119,-35l-360 -100c-17,54 -76,110 -155,82 -23,-8 -53,-39 -63,-56 -20,-35 -11,-68 -21,-103 -41,-2 -96,-22 -131,-32l-389 -107c-84,50 -139,248 -134,377z"/>
  <path class="fil3" d="M4175 1094l700 214 29 -176c-122,-44 -51,-174 -91,-243 -50,-1 -361,-98 -444,-114 -46,21 -99,86 -126,132 -31,53 -57,117 -68,187z"/>
  <path class="fil4" d="M1708 5351c83,6 2428,660 2647,717 296,77 588,166 885,241l-23 104 -3534 -959 25 -103zm4747 -782l1 -21c-41,54 -285,255 -351,304 -265,198 -532,338 -853,451 -56,20 -478,146 -491,158l770 204 -25 103 -957 -248c-108,-9 -458,115 -593,135 32,-63 131,-196 147,-255 -32,-13 -52,-19 -90,-13l-288 90c19,-58 68,-99 82,-151 -38,-26 -814,-222 -931,-252 -308,-82 -633,-159 -935,-250l24 -102 1906 500c30,-34 71,-116 98,-161 34,-58 65,-113 98,-172 65,-114 132,-232 191,-349l-2 -25 -2047 -555 -2 -40c-15,-32 5,-9 -28,-21l-274 -65c-12,-36 384,-1133 462,-1364l27 -68c12,-20 4,-7 12,-17 15,-76 157,-419 202,-538l32 -66c1,-3 3,-4 5,-5 2,-31 53,-140 71,-179 68,-152 204,-288 372,-364 316,-144 531,-24 836,31 -1,-42 -10,-106 7,-137l12 -101c-187,-76 -752,-155 -968,-58 -467,207 -1484,3331 -1682,3923 -55,165 -365,1145 -378,1299 -16,186 104,273 240,325 253,97 631,149 912,206 311,63 622,124 935,184 626,120 1248,246 1873,369 157,31 310,65 466,93 181,32 275,-92 330,-214 222,-488 495,-1558 665,-2138 23,-81 118,-385 119,-446z"/>
  <path class="fil4" d="M4967 3886l221 140c45,-43 160,-197 202,-253 259,-353 478,-724 732,-1080 69,-96 129,-171 198,-260 31,-41 69,-87 102,-126 114,-132 240,-251 331,-353 -18,-20 -189,-129 -220,-139 -40,137 -620,986 -707,1107 -188,259 -499,634 -740,851 -23,20 -35,31 -57,54 -24,25 -43,33 -62,59z"/>
  <path class="fil4" d="M3454 4181c51,24 837,234 876,232 21,-94 202,-370 205,-451 -16,-22 -35,-10 -67,-5 -154,22 -352,46 -498,78l-343 73c-24,5 -42,13 -65,18 -48,11 -84,29 -129,35 59,15 -10,-7 21,20z"/>
  <path class="fil4" d="M5150 1603c58,5 641,186 733,218 48,17 208,79 246,67l88 -129c-18,-26 -471,-166 -539,-189 -96,-32 -185,-61 -280,-93 -71,-23 -218,-80 -283,-88 2,73 9,157 35,214z"/>
  <path class="fil4" d="M4179 1333l667 181c38,8 23,9 33,-13l-4 -193 -700 -214c-10,61 -15,184 4,239z"/>
  <path class="fil4" d="M6671 1610l180 63c46,-75 305,-359 320,-395 -25,-20 -145,-80 -180,-87l-240 311c-29,38 -60,65 -80,108z"/>
  <path class="fil5" d="M754 6860c29,16 68,48 104,71 50,31 69,35 131,47 684,136 1391,312 2079,445 598,116 1191,252 1795,363 170,31 466,100 635,84 205,-20 372,-155 455,-266 123,-163 168,-262 219,-500 81,-379 205,-765 305,-1135 101,-371 220,-747 323,-1116 49,-180 106,-377 164,-556 23,-73 163,-525 162,-565 -2,-16 0,-8 -5,-16 -23,52 -109,163 -144,213 -50,69 -103,139 -153,202l-329 383c-6,-9 -10,11 -7,-19 -7,9 -4,4 -10,18 -12,30 2,-5 -6,20 -9,31 6,15 -17,36 -1,61 -96,365 -119,446 -170,580 -443,1650 -665,2138 -55,122 -149,246 -330,214 -156,-28 -309,-62 -466,-93 -625,-123 -1247,-249 -1873,-369 -313,-60 -624,-121 -935,-184 -281,-57 -659,-109 -912,-206 -136,-52 -256,-139 -240,-325 13,-154 323,-1134 378,-1299 198,-592 1215,-3716 1682,-3923 216,-97 781,-18 968,58 16,-67 31,-117 57,-175 28,-62 58,-96 84,-148l-519 -137c-82,-17 -177,-48 -264,-57 -46,-5 -99,-7 -147,-14 -112,-17 -313,24 -416,67 -78,33 -163,88 -222,142 -2,2 -7,6 -9,8l-52 58c-62,88 -129,225 -177,322l-151 333c-18,42 -34,74 -49,119l-187 465c-67,157 -122,310 -182,471l-264 717c-138,406 -284,799 -422,1213l-82 248c-28,84 -54,161 -83,247 -63,189 -280,873 -320,1061l-48 197c-22,110 -18,189 8,290 42,167 127,299 256,407z"/>
  <path class="fil6" d="M4836 4845l-18 7c-147,58 -749,346 -792,353l338 -493c20,-29 37,-52 57,-80 58,-83 10,-57 52,-86 24,-62 122,-194 165,-255 55,-77 115,-165 163,-250 175,-7 311,106 369,193 48,18 86,135 99,190 51,221 -68,185 -345,364l-65 46c-20,12 1,4 -23,11zm837 -553c-4,20 -4,14 -22,29 -12,10 -18,13 -29,23 -31,27 -25,33 -65,48 -15,25 -53,59 -84,70 -13,20 -77,72 -106,82l-65 -158 -15 -37c-30,-24 -79,-137 -167,-232 -62,-68 -139,-125 -278,-119l439 -554c398,-543 747,-1000 1125,-1576 27,-41 71,-114 99,-145 146,-6 314,44 388,120l34 27c22,14 35,32 53,49 9,9 17,16 26,25 19,21 11,5 17,28 13,9 6,3 17,13 2,2 11,11 13,14 18,25 7,7 12,28 24,14 30,24 34,49 22,15 19,15 32,39 79,139 69,103 -32,268 -218,352 -504,846 -746,1159 -37,48 -64,88 -103,135 -131,160 -437,536 -577,615zm1712 -2951c9,4 0,-2 12,9l50 73c25,17 19,12 28,43l18 34c25,28 64,155 64,203 1,40 -70,125 -95,163 -19,28 -194,290 -227,313 -30,-79 -65,-132 -102,-205l-23 -37 -19 -26c-10,-11 -24,-27 -43,-44 -7,-7 -20,-18 -26,-25 -10,-12 -10,-7 -12,-22 -39,-21 -64,-46 -108,-69 -124,-67 -235,-86 -380,-104 6,-27 139,-178 168,-215 60,-75 114,-138 176,-213 41,-50 34,-75 127,-72 148,5 349,103 392,194zm-898 22c-9,22 -251,379 -270,396l-88 129 -411 616 -51 81c-7,10 -3,5 -11,16l-9 11c-57,82 -115,166 -173,246 -60,82 -128,164 -179,242 -15,18 -30,34 -47,56 -13,17 -28,39 -44,53 -69,96 -307,360 -394,450 -31,31 -121,109 -138,135 -2,2 -5,4 -6,5l-12 8c-5,4 -8,6 -15,12l-65 68c-7,16 -11,30 -18,43 -10,22 -7,17 -21,32 -3,81 -184,357 -205,451l-8 10c-1,2 -3,4 -4,6l-27 49c-10,21 -16,46 -33,62 -59,117 -126,235 -191,349 -33,59 -64,114 -98,172 -27,45 -68,127 -98,161 -10,25 -17,32 -32,57 -5,9 -8,15 -15,27 -14,19 -4,7 -17,20 -14,52 -63,93 -82,151l288 -90c23,-23 69,-31 105,-43 32,-11 71,-26 99,-36 163,-40 893,-403 1053,-508l24 -15c6,-3 16,-8 22,-11 14,-7 22,-12 38,-21l72 -49c95,-34 350,-226 421,-288 140,-125 140,-115 277,-256l252 -282c86,-101 427,-547 442,-613l109 -156c35,-56 64,-101 99,-156 67,-107 538,-907 586,-957 67,121 -39,351 -78,458 -50,136 -95,278 -139,420 -50,162 -209,648 -247,811 -7,30 -3,29 -22,47 1,40 -139,492 -162,565 -58,179 -115,376 -164,556 -103,369 -222,745 -323,1116 -100,370 -224,756 -305,1135 -51,238 -96,337 -219,500 -83,111 -250,246 -455,266 -169,16 -465,-53 -635,-84 -604,-111 -1197,-247 -1795,-363 -688,-133 -1395,-309 -2079,-445 -62,-12 -81,-16 -131,-47 -36,-23 -75,-55 -104,-71 55,207 187,371 363,473 64,37 143,48 223,65 602,129 1262,279 1863,398l699 146c475,95 1216,260 1663,319 423,55 693,-227 811,-581l57 -231c204,-817 449,-1618 682,-2425 23,-79 42,-147 66,-222l528 -1733c45,-135 162,-420 165,-529 2,-75 52,-138 91,-196 21,-32 35,-57 56,-89 66,-97 46,-95 39,-223 -4,-97 -19,-164 -45,-242 -119,-368 -334,-429 -424,-567 -57,-87 -130,-148 -218,-205 -154,-100 -402,-131 -575,-53 -58,27 -265,335 -311,398z"/>
  <path class="fil7" d="M2207 3920c15,-18 20,-45 26,-67l1221 328c-31,-27 38,-5 -21,-20 45,-6 81,-24 129,-35 23,-5 41,-13 65,-18l343 -73c146,-32 344,-56 498,-78 32,-5 51,-17 67,5 14,-15 11,-10 21,-32 7,-13 11,-27 18,-43l-2111 -559 26 -105c69,10 988,262 1087,287l817 217c68,18 216,66 279,67 17,-26 107,-104 138,-135 87,-90 325,-354 394,-450 -7,-23 18,-5 -26,-21 -10,-4 -31,-8 -41,-11 -338,-90 -2300,-637 -2351,-634 -19,-17 -13,-14 -17,-44 -41,-18 -173,-43 -226,-54 -168,-35 -140,-28 -137,-60 -8,10 0,-3 -12,17l-27 68c-78,231 -474,1328 -462,1364l274 65c33,12 13,-11 28,21z"/>
  <path class="fil8" d="M2645 1776c9,30 -13,9 33,24 19,6 28,9 46,14l299 64c8,71 -8,17 21,36 -5,-39 11,-75 19,-112l2655 702 411 -616c-38,12 -198,-50 -246,-67 -92,-32 -675,-213 -733,-218 74,221 231,182 307,205 59,17 103,92 75,168 -54,144 -360,78 -511,-105 -122,-147 -106,-273 -142,-370 -10,22 5,21 -33,13l-667 -181c31,235 138,272 307,295 143,19 185,300 -124,241 -367,-70 -437,-419 -431,-742 -17,31 -8,95 -7,137 -305,-55 -520,-175 -836,-31 -168,76 -304,212 -372,364 -18,39 -69,148 -71,179z"/>
  <path class="fil9" d="M2406 2385c-3,32 -31,25 137,60 53,11 185,36 226,54 4,30 -2,27 17,44 -4,-36 7,-84 25,-111 75,9 232,61 313,83 217,60 2103,584 2171,585 51,-78 119,-160 179,-242 58,-80 116,-164 173,-246 -18,-24 -43,-24 -80,-34 -30,-7 -53,-13 -81,-21 -54,-14 -107,-28 -160,-42 -109,-30 -219,-59 -328,-88l-1304 -347c-88,-23 -606,-169 -650,-166 -29,-19 -13,35 -21,-36l-299 -64c-18,-5 -27,-8 -46,-14 -46,-15 -24,6 -33,-24 -2,1 -4,2 -5,5l-32 66c-45,119 -187,462 -202,538z"/>
  <path class="fil10" d="M5426 4704c8,32 -1,16 84,39 32,9 56,15 86,23 43,12 138,30 170,52l-24 97c-129,-10 -360,-119 -472,-115 -160,105 -890,468 -1053,508 31,28 437,128 508,142 23,8 17,6 36,11 13,-12 435,-138 491,-158 321,-113 588,-253 853,-451 66,-49 310,-250 351,-304l-1 21c23,-21 8,-5 17,-36 8,-25 -6,10 6,-20 6,-14 3,-9 10,-18 -3,-43 217,-789 259,-931 15,-51 29,-100 44,-151 12,-40 39,-107 33,-136l-6 -12c-15,66 -356,512 -442,613l-252 282c-137,141 -137,131 -277,256 -71,62 -326,254 -421,288z"/>
  <path class="fil11" d="M5442 1920c-85,42 -253,-36 -307,-78 -390,-297 -146,-1237 416,-1187 242,22 343,185 365,429 1,22 7,83 4,102 -6,35 -36,50 -49,15 -4,-10 -12,-156 -17,-188 -22,-120 -69,-203 -146,-252 -85,-55 -227,-70 -332,-33 -397,142 -495,845 -227,1057 36,29 78,55 133,71 46,14 127,10 163,30l-3 34zm-947 -210c5,54 -11,49 -67,44 -748,-60 -439,-1477 278,-1253 278,87 303,507 223,539 -26,-60 -10,-210 -59,-322 -102,-230 -461,-290 -695,53 -105,152 -160,399 -103,618 39,149 124,252 265,294 48,13 123,10 158,27zm-411 -1007c-26,52 -56,86 -84,148 -26,58 -41,108 -57,175l-12 101c-6,323 64,672 431,742 309,59 267,-222 124,-241 -169,-23 -276,-60 -307,-295 -19,-55 -14,-178 -4,-239 11,-70 37,-134 68,-187 27,-46 80,-111 126,-132 49,-48 169,-75 278,-63 47,5 103,21 128,50 18,21 48,96 38,127 40,69 -31,199 91,243l-29 176 4 193c36,97 20,223 142,370 151,183 457,249 511,105 28,-76 -16,-151 -75,-168 -76,-23 -233,16 -307,-205 -26,-57 -33,-141 -35,-214 -5,-129 50,-327 134,-377 91,-93 172,-140 315,-125 224,25 177,67 205,264 10,35 1,68 21,103 10,17 40,48 63,56 79,28 138,-28 155,-82 18,-25 9,-4 13,-42 6,-76 -27,-261 -58,-334 -19,-44 -60,-96 -93,-126 -162,-143 -479,-132 -690,9 -54,36 -102,97 -125,103 0,-154 -100,-298 -248,-353 -208,-78 -466,-29 -627,114 -18,17 -32,32 -51,51 -20,20 -29,37 -45,53z"/>
  <path class="fil12" d="M6818 3265l6 12c6,29 -21,96 -33,136 -15,51 -29,100 -44,151 -42,142 -262,888 -259,931 -3,30 1,10 7,19l329 -383c50,-63 103,-133 153,-202 35,-50 121,-161 144,-213 5,8 3,0 5,16 19,-18 15,-17 22,-47 38,-163 197,-649 247,-811 44,-142 89,-284 139,-420 39,-107 145,-337 78,-458 -48,50 -519,850 -586,957 -35,55 -64,100 -99,156l-109 156z"/>
  <path class="fil13" d="M4967 3886c19,-26 38,-34 62,-59 22,-23 34,-34 57,-54 241,-217 552,-592 740,-851 87,-121 667,-970 707,-1107 31,10 202,119 220,139 -91,102 -217,221 -331,353 -33,39 -71,85 -102,126 -69,89 -129,164 -198,260 -254,356 -473,727 -732,1080 -42,56 -157,210 -202,253l-221 -140zm335 500l65 158c29,-10 93,-62 106,-82 31,-11 69,-45 84,-70 40,-15 34,-21 65,-48 11,-10 17,-13 29,-23 18,-15 18,-9 22,-29 140,-79 446,-455 577,-615 39,-47 66,-87 103,-135 242,-313 528,-807 746,-1159 101,-165 111,-129 32,-268 -13,-24 -10,-24 -32,-39 -4,-25 -10,-35 -34,-49 -5,-21 6,-3 -12,-28 -2,-3 -11,-12 -13,-14 -11,-10 -4,-4 -17,-13 -6,-23 2,-7 -17,-28 -9,-9 -17,-16 -26,-25 -18,-17 -31,-35 -53,-49l-34 -27c-74,-76 -242,-126 -388,-120 -28,31 -72,104 -99,145 -378,576 -727,1033 -1125,1576l-439 554c139,-6 216,51 278,119 88,95 137,208 167,232l15 37z"/>
  <path class="fil14" d="M4473 4546c31,22 133,-47 261,99 44,-20 99,-34 148,-60 43,-23 93,-61 123,-88 31,-27 173,-195 165,-263 -58,-87 -194,-200 -369,-193 -48,85 -108,173 -163,250 -43,61 -141,193 -165,255z"/>
  <path class="fil15" d="M4836 4845c-20,-46 -27,-66 -53,-102 -25,-34 -43,-50 -49,-98 -128,-146 -230,-77 -261,-99 -42,29 6,3 -52,86 -20,28 -37,51 -57,80l-338 493c43,-7 645,-295 792,-353l18 -7z"/>
  <path class="fil16" d="M6671 1610c20,-43 51,-70 80,-108l240 -311c35,7 155,67 180,87 -15,36 -274,320 -320,395l-180 -63zm439 327l23 37c37,73 72,126 102,205 33,-23 208,-285 227,-313 25,-38 96,-123 95,-163 0,-48 -39,-175 -64,-203l-18 -34c-9,-31 -3,-26 -28,-43l-50 -73c-12,-11 -3,-5 -12,-9 -43,-91 -244,-189 -392,-194 -93,-3 -86,22 -127,72 -62,75 -116,138 -176,213 -29,37 -162,188 -168,215 145,18 256,37 380,104 44,23 69,48 108,69 2,15 2,10 12,22 6,7 19,18 26,25 19,17 33,33 43,44l19 26z"/>
  <path class="fil17" d="M4734 4645c6,48 24,64 49,98 26,36 33,56 53,102 24,-7 3,1 23,-11l65 -46c277,-179 396,-143 345,-364 -13,-55 -51,-172 -99,-190 8,68 -134,236 -165,263 -30,27 -80,65 -123,88 -49,26 -104,40 -148,60z"/>
  <path class="fil18" d="M4549 5520l0 -8c-147,-22 -302,-78 -446,-112 -16,59 -115,192 -147,255 135,-20 485,-144 593,-135z"/>
 </g>
</svg>
