<?xml version="1.0" encoding="UTF-8"?>
<!DOCTYPE svg PUBLIC "-//W3C//DTD SVG 1.1//EN" "http://www.w3.org/Graphics/SVG/1.1/DTD/svg11.dtd">
<!-- Creator: CorelDRAW X8 -->
<svg xmlns="http://www.w3.org/2000/svg" xml:space="preserve" width="297mm" height="210mm" version="1.1" style="shape-rendering:geometricPrecision; text-rendering:geometricPrecision; image-rendering:optimizeQuality; fill-rule:evenodd; clip-rule:evenodd"
viewBox="0 0 29700 21000"
 xmlns:xlink="http://www.w3.org/1999/xlink">
 <defs>
  <style type="text/css">
   <![CDATA[
    .fil0 {fill:none}
    .fil2 {fill:#2D527C}
    .fil1 {fill:#CDE7F7}
   ]]>
  </style>
 </defs>
 <g id="Layer_x0020_1">
  <metadata id="CorelCorpID_0Corel-Layer"/>
  <rect class="fil0" width="29700" height="21000"/>
  <g id="_3059541499280">
   <path class="fil1" d="M10038 18230c124,704 794,694 1247,694l5910 0c1810,0 2565,297 2480,-1438 -79,-1606 -882,-2951 -2103,-3795 -1336,-923 -3188,-1098 -4646,-436 -1336,606 -2373,1732 -2735,3174 -115,457 -238,1317 -153,1801z"/>
   <path class="fil1" d="M8509 8828c81,553 681,949 1315,695 195,-78 206,-105 210,-359l-2 -1637c1,-470 92,-658 -355,-769 -351,-88 -662,37 -860,195 -420,335 -374,1424 -308,1875z"/>
   <path class="fil1" d="M19710 9439c593,318 1196,135 1432,-419 114,-270 71,-730 71,-1047 1,-381 -5,-620 -199,-883 -298,-407 -1346,-656 -1341,176 2,510 -57,1774 37,2173z"/>
   <path class="fil2" d="M10038 18230c-85,-484 38,-1344 153,-1801 362,-1442 1399,-2568 2735,-3174 1458,-662 3310,-487 4646,436 1221,844 2024,2189 2103,3795 85,1735 -670,1438 -2480,1438l-5910 0c-453,0 -1123,10 -1247,-694zm9672 -8791c-94,-399 -35,-1663 -37,-2173 -5,-832 1043,-583 1341,-176 194,263 200,502 199,883 0,317 43,777 -71,1047 -236,554 -839,737 -1432,419zm-11201 -611c-66,-451 -112,-1540 308,-1875 198,-158 509,-283 860,-195 447,111 356,299 355,769l2 1637c-4,254 -15,281 -210,359 -634,254 -1234,-142 -1315,-695zm2652 -1158c14,-237 33,-515 120,-729l185 -542 101 -222c82,-214 372,-636 509,-706 34,-75 13,-58 73,-127 68,-79 45,-47 119,-87l130 -148c294,-252 926,-727 1303,-727 115,-102 492,-168 818,-198l669 1 816 197c166,1 404,122 564,205l151 104c418,148 1256,1034 1420,1489l100 232 186 526c78,194 109,515 120,735l-39 739 -125 586 -3267 6c-184,52 -202,77 -320,169 -218,287 -130,469 -17,751 170,71 152,142 449,164l747 0 739 0 745 0 334 1c-76,148 -213,312 -328,391l-242 207c-74,93 -327,295 -463,322 -33,40 -16,26 -65,64l-297 153c-157,76 -271,116 -439,170 -527,175 -1790,250 -2154,-13l-31 13 -799 -362c-6,-4 -16,-13 -23,-20 -147,-40 -389,-228 -464,-329 -83,-41 -66,-28 -143,-93 -84,-72 -55,-36 -98,-113 -93,-61 -391,-401 -422,-537 -298,-210 -589,-1222 -623,-1524l-39 -748zm2540 -4460l-47 -9 -672 240c-109,90 -234,127 -353,188 -59,30 -122,69 -167,95 -124,72 -59,58 -176,70 -64,84 -42,57 -122,115 -103,74 -46,44 -160,84 -36,74 -137,132 -220,204 -47,40 -72,64 -122,103 -83,65 -47,48 -132,80 -41,99 -266,322 -321,365 -39,76 -136,184 -203,272 -67,88 -121,168 -198,285 -48,103 -39,105 -136,172 -12,106 -34,126 -89,237 -45,93 -51,117 -116,192l-433 -192 -437 -71 88 -191c52,-139 210,-508 301,-561l103 -186c215,-428 490,-642 683,-884 226,-282 1151,-986 1483,-1095 298,-207 1041,-445 1476,-532l741 -96 754 1 737 96c466,79 1158,314 1491,532 649,219 1885,1397 2163,1978l104 186c90,54 251,425 299,561l81 186 -418 76 -444 192c-67,-79 -78,-115 -128,-219 -62,-127 -63,-96 -77,-211l-116 -124c-62,-122 -122,-202 -202,-310 -49,-66 -73,-98 -113,-148 -88,-111 -56,-32 -99,-148 -99,-68 -89,-89 -174,-174 -100,-100 -95,-44 -152,-190 -104,-39 -160,-101 -255,-182 -90,-78 -178,-120 -222,-205 -106,-39 -210,-104 -279,-199 -121,-12 -72,-8 -200,-84 -56,-33 -104,-60 -169,-92 -123,-61 -232,-104 -339,-167 -117,-39 -225,-85 -336,-123 -50,-17 -113,-33 -170,-52l-138 -69 -65 5c-934,-176 -1373,-153 -2304,-1zm-1486 -1702c-44,44 -614,313 -730,384 -111,69 -229,139 -345,212 -109,67 -213,168 -327,224 -103,104 -118,123 -260,176 -48,126 -153,172 -249,251 -116,96 -155,178 -279,252 -82,103 -138,182 -232,249 -55,117 -152,187 -242,306 -60,79 -74,104 -127,174 -59,78 -46,85 -111,112 -58,113 -28,102 -130,170 -21,138 -94,215 -172,343 -61,98 -123,237 -185,305 -43,124 -89,216 -143,332 -25,53 -45,104 -67,156l-91 154 -20 113c-21,78 -132,446 -161,500 -60,111 -74,81 -157,143 -83,62 -79,81 -165,136 -56,82 -92,139 -194,196 -52,135 -196,339 -286,536l-131 558 8 1449 42 238c116,254 115,355 275,599 140,215 256,341 441,488 367,291 839,450 1436,428l397 -53 355 -166c140,-76 239,-167 364,-207l22 120c99,72 155,175 193,289l436 473c264,294 551,521 879,750 73,37 136,77 194,111 36,21 64,37 92,56 89,59 50,27 103,87 92,25 84,-16 -3,36 -29,18 -103,42 -137,56 -89,39 -163,80 -262,116 -130,82 -221,116 -350,200 -126,81 -240,146 -381,224l-140 92 -635 512 -205 211c-67,145 -143,204 -249,324 -95,106 -160,255 -285,320 -15,93 82,49 -52,85 -61,163 -136,261 -226,407 -71,116 -125,309 -241,396 -10,129 -110,313 -161,466l-104 258 -184 740 -84 745 -5 138c-26,654 -5,808 139,1384 39,42 61,82 94,139 65,111 67,103 83,201 152,96 118,95 228,229 7,9 30,32 37,41 39,48 18,18 55,76 117,21 98,57 217,134 89,59 146,78 222,140 269,100 418,162 741,186l753 6 734 0 753 0 733 0 753 0 734 0 753 0 733 0 754 0 733 0 755 -6c300,-19 493,-84 735,-188l399 -250 365 -367c15,-98 10,-70 69,-178 32,-59 64,-116 106,-163 138,-543 152,-647 150,-1263l-14 -263 -86 -738 -182 -747 -106 -268 -160 -452c-67,-50 -430,-703 -467,-803 -133,-31 -37,10 -52,-85 -127,-67 -185,-204 -268,-300 -115,-135 -197,-193 -265,-344 -34,-19 -17,-6 -61,-40 -4,-3 -51,-41 -58,-49 -75,-74 -59,-62 -87,-122 -133,-62 -216,-147 -326,-246 -76,-69 -73,-64 -143,-116l-166 -143 -136 -99c-134,-67 -238,-140 -359,-213 -141,-85 -236,-128 -381,-211 -89,-35 -142,-66 -231,-105 -46,-20 -107,-37 -142,-54 -216,-104 -27,-46 -23,-48 78,-108 261,-194 396,-255 327,-263 570,-408 855,-729 541,-607 352,-448 651,-836 66,-87 12,-20 55,-62 222,126 331,236 643,330l70 58 364 33c1198,46 1867,-622 2148,-1532l46 -241 2 -1503 -125 -477c-40,-98 -70,-180 -126,-279 -69,-121 -112,-141 -160,-263 -105,-60 -99,-72 -163,-160 -335,-247 -383,-308 -514,-820l-20 -108c-23,-27 -27,-27 -55,-76l-245 -567 -419 -695 -69 -123c-55,-25 -67,-56 -126,-135 -42,-55 -59,-82 -111,-151 -89,-117 -193,-193 -240,-305 -88,-62 -65,-52 -139,-136 -38,-44 -55,-62 -98,-114 -121,-74 -162,-157 -277,-251 -98,-80 -198,-127 -248,-252 -120,-46 -171,-99 -261,-171 -123,-70 -213,-159 -349,-244 -122,-76 -231,-143 -346,-212 -107,-64 -658,-320 -706,-369 -186,-43 -354,-119 -528,-180 -173,-61 -345,-94 -524,-143 -287,-79 -991,-137 -1148,-199l-911 0c-148,59 -871,139 -1144,207 -374,95 -701,242 -1022,315z"/>
  </g>
 </g>
</svg>
