<?xml version="1.0" encoding="UTF-8"?>
<!DOCTYPE svg PUBLIC "-//W3C//DTD SVG 1.1//EN" "http://www.w3.org/Graphics/SVG/1.1/DTD/svg11.dtd">
<!-- Creator: CorelDRAW X8 -->
<svg xmlns="http://www.w3.org/2000/svg" xml:space="preserve" width="297mm" height="210mm" version="1.1" style="shape-rendering:geometricPrecision; text-rendering:geometricPrecision; image-rendering:optimizeQuality; fill-rule:evenodd; clip-rule:evenodd"
viewBox="0 0 29700 21000"
 xmlns:xlink="http://www.w3.org/1999/xlink">
 <defs>
  <style type="text/css">
   <![CDATA[
    .fil0 {fill:none}
    .fil1 {fill:#263356}
    .fil4 {fill:#263357}
    .fil2 {fill:#60C3F0}
    .fil3 {fill:#F76363}
   ]]>
  </style>
 </defs>
 <g id="Layer_x0020_1">
  <metadata id="CorelCorpID_0Corel-Layer"/>
  <rect class="fil0" width="29700" height="21000"/>
  <g id="_3059541503920">
   <g>
    <path class="fil1" d="M6629 4496l0 2997c0,170 167,215 300,215 103,0 126,-70 214,-129 0,-785 0,-1570 0,-2355 0,-1611 288,-1099 942,-1413 248,-1035 -1456,-221 -1456,685z"/>
    <path class="fil1" d="M14637 19526c625,146 1421,-120 1925,-429l782 -631c363,-298 1232,-777 1232,-952 0,-731 -942,88 -1225,273l-862 680c-1009,908 -2261,208 -1852,1059z"/>
    <path class="fil1" d="M9969 19227c617,0 486,-771 43,-771 -515,0 -544,771 -43,771z"/>
    <path class="fil1" d="M13866 19269c0,426 514,357 514,43 0,-356 -514,-318 -514,-43z"/>
    <path class="fil1" d="M8513 3554c0,278 21,300 300,300 190,0 262,-278 120,-420 -160,-160 -420,-66 -420,120z"/>
   </g>
   <g>
    <path class="fil2" d="M10953 17813l138 377c598,-189 610,-202 1319,-203 500,-1 999,0 1499,0 1495,0 1391,90 2341,-659 560,-441 1115,-832 1830,-1211 830,-440 1943,-724 2132,-851 37,-269 -15,-321 -308,-330 150,348 -257,314 -862,516 -1183,396 -2386,1097 -3359,1866 -535,422 -984,324 -1903,324l-2217 10c-196,29 -411,116 -610,161z"/>
    <path class="fil2" d="M12978 16315c-28,-498 281,-385 717,-386 356,0 714,-1 1070,0 342,1 692,37 853,-220 173,-277 60,-598 -168,-735 -199,281 -195,403 -683,400 -671,-3 -1611,-112 -1920,221 -88,94 -147,189 -191,328 -60,194 3,251 97,392l225 0z"/>
   </g>
   <g>
    <path class="fil3" d="M11511 2526c0,-1384 1360,-1600 1939,-1040 569,551 627,1586 801,2282 -163,-86 -724,-48 -912,-73 -340,-45 -575,-65 -853,-131 -484,-116 -975,-483 -975,-1038zm3640 1242c0,-426 361,-1961 762,-2278 1511,-1191 3010,1484 1063,2046 -616,178 -1714,179 -1825,232zm-1970 456l3040 -6c183,-48 451,-60 644,-106 578,-140 296,-138 555,-44 135,-201 983,-588 987,-1627 7,-1815 -2176,-2250 -2995,-1195 -292,377 -688,1399 -690,1922 -343,-684 -256,-2511 -2142,-2485 -655,8 -1137,448 -1395,875 -513,847 -5,1465 -56,1724 -16,79 300,305 371,369 614,553 1416,463 1681,573z"/>
    <polygon class="fil3" points="13823,13189 15536,13189 15536,7878 13823,7878 "/>
    <polygon class="fil3" points="13823,7194 15536,7194 15536,4748 13823,4748 "/>
   </g>
   <path class="fil4" d="M10953 17813l-500 -1040c-106,-246 -433,-841 -484,-1058 383,-256 352,-330 1003,-582 350,-135 888,-232 1351,-233 638,-1 2743,-92 3127,74 228,137 341,458 168,735 -161,257 -511,221 -853,220 -356,-1 -714,0 -1070,0 -436,1 -745,-112 -717,386 257,207 268,128 931,128 889,0 1309,97 1941,-200 763,-357 1469,-688 2282,-973 700,-245 1058,-333 1772,-334 293,9 345,61 308,330 -189,127 -1302,411 -2132,851 -715,379 -1270,770 -1830,1211 -950,749 -846,659 -2341,659 -500,0 -999,-1 -1499,0 -709,1 -721,14 -1319,203l-138 -377zm5268 -2355c0,-346 -72,-316 -128,-556l1413 0 -618 281c-220,91 -451,225 -667,275zm-9421 -1370l0 -385 16101 0c0,368 68,685 -299,685l-15502 0c-200,0 -300,-100 -300,-300zm7023 -6210l1713 0 5139 1 0 5310 -5139 0 -1713 0 -5138 0 0 -5310 5138 -1zm0 -3130l1713 0 5652 5 0 2441 -5652 0 -1713 0 -5652 0c0,-868 43,-1599 43,-2441l5609 -5zm2398 -530l-3040 6 -5396 15c-182,272 -129,300 -128,728l0 2612c184,160 77,118 514,129l0 5481 -1756 0 -119 137c-9,433 -75,972 129,1222 314,385 536,354 1018,354 913,-2 1827,0 2740,0 -65,56 -17,17 -100,71l-371 228c-117,-440 -659,-94 -1172,155 -463,225 -210,698 229,489 181,-85 385,-167 558,-258 32,139 119,326 185,457 83,166 128,279 201,441l1241 2656 -857 385c-272,133 -767,302 -770,514 96,411 364,285 657,143l1505 -723c238,-231 -86,-516 -150,-790 419,-221 838,-171 1456,-171 856,0 2378,120 3070,-228 559,-280 1561,-1481 3594,-2187 368,-128 1477,-243 1258,-1182 406,0 1840,56 2117,-25 216,-62 475,-325 546,-524 63,-176 35,-765 35,-1036l-137 -119 -2090 -9 0 -5481 386 0 119 -138 9 -1661c11,-199 45,-264 44,-513 -5,-1366 139,-1157 -1071,-1157 -656,0 -4112,44 -4454,-21z"/>
  </g>
 </g>
</svg>
