<?xml version="1.0" encoding="UTF-8"?>
<!DOCTYPE svg PUBLIC "-//W3C//DTD SVG 1.1//EN" "http://www.w3.org/Graphics/SVG/1.1/DTD/svg11.dtd">
<!-- Creator: CorelDRAW X8 -->
<svg xmlns="http://www.w3.org/2000/svg" xml:space="preserve" width="297mm" height="210mm" version="1.1" style="shape-rendering:geometricPrecision; text-rendering:geometricPrecision; image-rendering:optimizeQuality; fill-rule:evenodd; clip-rule:evenodd"
viewBox="0 0 29700 21000"
 xmlns:xlink="http://www.w3.org/1999/xlink">
 <defs>
  <style type="text/css">
   <![CDATA[
    .fil0 {fill:none}
    .fil9 {fill:#056801}
    .fil2 {fill:#110B04}
    .fil23 {fill:#155AA3}
    .fil12 {fill:#285817}
    .fil18 {fill:#3B8B1C}
    .fil8 {fill:#5A1405}
    .fil24 {fill:#635B21}
    .fil16 {fill:#75B81C}
    .fil5 {fill:#875735}
    .fil25 {fill:#94CC72}
    .fil3 {fill:#A37259}
    .fil10 {fill:#A6580C}
    .fil19 {fill:#ABE743}
    .fil13 {fill:#CAB692}
    .fil4 {fill:#CD964C}
    .fil6 {fill:#CF9019}
    .fil15 {fill:#D50604}
    .fil21 {fill:#EA4506}
    .fil7 {fill:#EFB26F}
    .fil20 {fill:#F4DD9B}
    .fil22 {fill:#F6B6A8}
    .fil11 {fill:#F6FCB9}
    .fil14 {fill:#FCC342}
    .fil17 {fill:#FDFDE4}
    .fil1 {fill:white}
   ]]>
  </style>
 </defs>
 <g id="Layer_x0020_1">
  <metadata id="CorelCorpID_0Corel-Layer"/>
  <rect class="fil0" width="29700" height="21000"/>
  <g id="_3059546694448">
   <polygon class="fil1" points="8913,14008 9453,14008 9460,13460 8913,13468 "/>
   <path class="fil1" d="M20789 14550l-4 538 538 1 10 -515c-89,-46 -421,-27 -544,-24z"/>
   <polygon class="fil1" points="11613,5918 12147,5915 12151,5374 11611,5374 "/>
   <polygon class="fil1" points="6215,5914 6755,5914 6755,5374 6215,5374 "/>
   <polygon class="fil1" points="6755,10770 7294,10770 7294,10231 6755,10231 "/>
   <polygon class="fil1" points="22943,4295 23482,4295 23482,3755 22943,3755 "/>
   <polygon class="fil1" points="20784,4295 21324,4295 21324,3755 20784,3755 "/>
   <polygon class="fil1" points="19705,4295 20245,4295 20245,3755 19705,3755 "/>
   <polygon class="fil1" points="9453,4835 9992,4835 9992,4295 9453,4295 "/>
   <polygon class="fil1" points="7834,15087 8373,15087 8373,14547 7834,14547 "/>
   <polygon class="fil1" points="8913,15087 9453,15087 9453,14547 8913,14547 "/>
   <polygon class="fil1" points="11071,4295 11611,4295 11611,3755 11071,3755 "/>
   <polygon class="fil1" points="25101,8612 25641,8612 25641,8072 25101,8072 "/>
   <polygon class="fil1" points="8913,4295 9453,4295 9453,3755 8913,3755 "/>
   <polygon class="fil1" points="7834,4295 8373,4295 8373,3755 7834,3755 "/>
   <polygon class="fil1" points="6755,4295 7294,4295 7294,3755 6755,3755 "/>
   <polygon class="fil1" points="22403,5914 22943,5914 22943,5374 22403,5374 "/>
   <polygon class="fil1" points="7834,8612 8373,8612 8373,8072 7834,8072 "/>
   <polygon class="fil1" points="25641,5914 26180,5914 26180,5374 25641,5374 "/>
   <polygon class="fil1" points="6755,8612 7294,8612 7294,8072 6755,8072 "/>
   <polygon class="fil1" points="24022,8612 24562,8612 24562,8072 24022,8072 "/>
   <polygon class="fil1" points="25641,13468 26180,13468 26180,12929 25641,12929 "/>
   <polygon class="fil1" points="24022,15087 24562,15087 24562,14547 24022,14547 "/>
   <polygon class="fil1" points="20784,16166 21324,16166 21324,15627 20784,15627 "/>
   <polygon class="fil1" points="25101,15087 25641,15087 25641,14547 25101,14547 "/>
   <polygon class="fil1" points="6215,13468 6755,13468 6755,12929 6215,12929 "/>
   <polygon class="fil1" points="6755,16166 7294,16166 7294,15627 6755,15627 "/>
   <polygon class="fil1" points="7834,16166 8373,16166 8373,15627 7834,15627 "/>
   <polygon class="fil1" points="8913,16166 9453,16166 9453,15627 8913,15627 "/>
   <polygon class="fil1" points="11071,16166 11611,16166 11611,15627 11071,15627 "/>
   <polygon class="fil1" points="9453,6993 9992,6993 9992,6453 9453,6453 "/>
   <polygon class="fil1" points="12151,16166 12690,16166 12690,15627 12151,15627 "/>
   <polygon class="fil1" points="19705,16166 20245,16166 20245,15627 19705,15627 "/>
   <polygon class="fil1" points="22943,16166 23482,16166 23482,15627 22943,15627 "/>
   <polygon class="fil1" points="24022,16166 24562,16166 24562,15627 24022,15627 "/>
   <polygon class="fil1" points="6215,6993 6755,6993 6755,6453 6215,6453 "/>
   <polygon class="fil1" points="25101,16166 25641,16166 25641,15627 25101,15627 "/>
   <polygon class="fil1" points="6755,11849 7294,11849 7294,11310 6755,11310 "/>
   <polygon class="fil1" points="7834,11849 8373,11849 8373,11310 7834,11310 "/>
   <polygon class="fil1" points="24022,11849 24562,11849 24562,11310 24022,11310 "/>
   <polygon class="fil1" points="25101,11849 25641,11849 25641,11310 25101,11310 "/>
   <polygon class="fil1" points="25641,10231 26180,10231 26180,9691 25641,9691 "/>
   <polygon class="fil1" points="25641,12389 26180,12389 26180,11849 25641,11849 "/>
   <polygon class="fil1" points="22403,6993 22943,6993 22943,6453 22403,6453 "/>
   <polygon class="fil1" points="25641,6993 26180,6993 26180,6453 25641,6453 "/>
   <polygon class="fil1" points="25641,4835 26180,4835 26180,4295 25641,4295 "/>
   <polygon class="fil1" points="25641,14547 26180,14547 26180,14008 25641,14008 "/>
   <polygon class="fil1" points="6215,9151 6755,9151 6755,8612 6215,8612 "/>
   <polygon class="fil1" points="6215,10231 6755,10231 6755,9691 6215,9691 "/>
   <polygon class="fil1" points="25101,10770 25641,10770 25641,10231 25101,10231 "/>
   <polygon class="fil1" points="24022,10770 24562,10770 24562,10231 24022,10231 "/>
   <polygon class="fil1" points="22403,4835 22943,4835 22943,4295 22403,4295 "/>
   <polygon class="fil1" points="21324,4835 21864,4835 21864,4295 21324,4295 "/>
   <polygon class="fil1" points="6215,14547 6755,14547 6755,14008 6215,14008 "/>
   <polygon class="fil1" points="6755,7533 7294,7533 7294,6993 6755,6993 "/>
   <polygon class="fil1" points="7834,7533 8373,7533 8373,6993 7834,6993 "/>
   <polygon class="fil1" points="8913,7533 9453,7533 9453,6993 8913,6993 "/>
   <polygon class="fil1" points="22943,7533 23482,7533 23482,6993 22943,6993 "/>
   <polygon class="fil1" points="24022,7533 24562,7533 24562,6993 24022,6993 "/>
   <polygon class="fil1" points="25101,7533 25641,7533 25641,6993 25101,6993 "/>
   <polygon class="fil1" points="6215,12389 6755,12389 6755,11849 6215,11849 "/>
   <polygon class="fil1" points="25641,9151 26180,9151 26180,8612 25641,8612 "/>
   <polygon class="fil1" points="7834,10770 8373,10770 8373,10231 7834,10231 "/>
   <polygon class="fil1" points="10532,4835 11071,4835 11071,4295 10532,4295 "/>
   <polygon class="fil1" points="6215,4835 6755,4835 6755,4295 6215,4295 "/>
   <polygon class="fil1" points="6755,15087 7294,15087 7294,14547 6755,14547 "/>
   <polygon class="fil1" points="9453,5914 9992,5914 9992,5374 9453,5374 "/>
   <polygon class="fil1" points="25101,4295 25641,4295 25641,3755 25101,3755 "/>
   <polygon class="fil1" points="24022,4295 24562,4295 24562,3755 24022,3755 "/>
   <polygon class="fil1" points="9453,15627 9992,15627 9992,15087 9453,15087 "/>
   <polygon class="fil1" points="10532,15627 11071,15627 11071,15087 10532,15087 "/>
   <polygon class="fil1" points="25641,15627 26180,15627 26180,15087 25641,15087 "/>
   <polygon class="fil1" points="5675,16166 6215,16166 6215,15627 5675,15627 "/>
   <polygon class="fil1" points="9992,16166 10532,16166 10532,15627 9992,15627 "/>
   <polygon class="fil1" points="18626,16166 19166,16166 19166,15627 18626,15627 "/>
   <polygon class="fil1" points="21864,16166 22403,16166 22403,15627 21864,15627 "/>
   <polygon class="fil1" points="26180,16166 26720,16166 26720,15627 26180,15627 "/>
   <polygon class="fil1" points="6215,3755 6755,3755 6755,3216 6215,3216 "/>
   <polygon class="fil1" points="9453,3755 9992,3755 9992,3216 9453,3216 "/>
   <polygon class="fil1" points="10532,3755 11071,3755 11071,3216 10532,3216 "/>
   <polygon class="fil1" points="12690,3755 13230,3755 13230,3216 12690,3216 "/>
   <polygon class="fil1" points="19166,3755 19705,3755 19705,3216 19166,3216 "/>
   <polygon class="fil1" points="21324,3755 21864,3755 21864,3216 21324,3216 "/>
   <polygon class="fil1" points="22403,3755 22943,3755 22943,3216 22403,3216 "/>
   <polygon class="fil1" points="25641,3755 26180,3755 26180,3216 25641,3216 "/>
   <polygon class="fil1" points="5675,4295 6215,4295 6215,3755 5675,3755 "/>
   <polygon class="fil1" points="9992,4295 10532,4295 10532,3755 9992,3755 "/>
   <polygon class="fil1" points="21864,4295 22403,4295 22403,3755 21864,3755 "/>
   <polygon class="fil1" points="26180,4295 26720,4295 26720,3755 26180,3755 "/>
   <polygon class="fil1" points="7294,4835 7834,4835 7834,4295 7294,4295 "/>
   <polygon class="fil1" points="8373,4835 8913,4835 8913,4295 8373,4295 "/>
   <polygon class="fil1" points="11611,4835 12151,4835 12151,4295 11611,4295 "/>
   <polygon class="fil1" points="20245,4835 20784,4835 20784,4295 20245,4295 "/>
   <polygon class="fil1" points="23482,4835 24022,4835 24022,4295 23482,4295 "/>
   <polygon class="fil1" points="24562,4835 25101,4835 25101,4295 24562,4295 "/>
   <polygon class="fil1" points="6755,5374 7294,5374 7294,4835 6755,4835 "/>
   <polygon class="fil1" points="7834,5374 8373,5374 8373,4835 7834,4835 "/>
   <polygon class="fil1" points="8913,5374 9453,5374 9453,4835 8913,4835 "/>
   <polygon class="fil1" points="11071,5374 11611,5374 11611,4835 11071,4835 "/>
   <polygon class="fil1" points="22943,5374 23482,5374 23482,4835 22943,4835 "/>
   <polygon class="fil1" points="24022,5374 24562,5374 24562,4835 24022,4835 "/>
   <polygon class="fil1" points="25101,5374 25641,5374 25641,4835 25101,4835 "/>
   <polygon class="fil1" points="7294,5914 7834,5914 7834,5374 7294,5374 "/>
   <polygon class="fil1" points="8373,5914 8913,5914 8913,5374 8373,5374 "/>
   <polygon class="fil1" points="23482,5914 24022,5914 24022,5374 23482,5374 "/>
   <polygon class="fil1" points="24562,5914 25101,5914 25101,5374 24562,5374 "/>
   <polygon class="fil1" points="6755,6453 7294,6453 7294,5914 6755,5914 "/>
   <polygon class="fil1" points="7834,6453 8373,6453 8373,5914 7834,5914 "/>
   <polygon class="fil1" points="8913,6453 9453,6453 9453,5914 8913,5914 "/>
   <polygon class="fil1" points="22943,6453 23482,6453 23482,5914 22943,5914 "/>
   <polygon class="fil1" points="24022,6453 24562,6453 24562,5914 24022,5914 "/>
   <polygon class="fil1" points="25101,6453 25641,6453 25641,5914 25101,5914 "/>
   <polygon class="fil1" points="7294,6993 7834,6993 7834,6453 7294,6453 "/>
   <polygon class="fil1" points="8373,6993 8913,6993 8913,6453 8373,6453 "/>
   <polygon class="fil1" points="23482,6993 24022,6993 24022,6453 23482,6453 "/>
   <polygon class="fil1" points="24562,6993 25101,6993 25101,6453 24562,6453 "/>
   <polygon class="fil1" points="5675,7533 6215,7533 6215,6993 5675,6993 "/>
   <polygon class="fil1" points="26180,7533 26720,7533 26720,6993 26180,6993 "/>
   <polygon class="fil1" points="6215,8072 6755,8072 6755,7533 6215,7533 "/>
   <polygon class="fil1" points="25641,8072 26180,8072 26180,7533 25641,7533 "/>
   <polygon class="fil1" points="5675,8612 6215,8612 6215,8072 5675,8072 "/>
   <polygon class="fil1" points="26180,8612 26720,8612 26720,8072 26180,8072 "/>
   <polygon class="fil1" points="24562,9151 25101,9151 25101,8612 24562,8612 "/>
   <polygon class="fil1" points="7294,9151 7834,9151 7834,8612 7294,8612 "/>
   <polygon class="fil1" points="8373,9151 8913,9151 8913,8612 8373,8612 "/>
   <polygon class="fil1" points="7294,13468 7834,13468 7834,12929 7294,12929 "/>
   <polygon class="fil1" points="6755,9691 7294,9691 7294,9151 6755,9151 "/>
   <polygon class="fil1" points="7834,9691 8373,9691 8373,9151 7834,9151 "/>
   <polygon class="fil1" points="24022,9691 24562,9691 24562,9151 24022,9151 "/>
   <polygon class="fil1" points="25101,9691 25641,9691 25641,9151 25101,9151 "/>
   <polygon class="fil1" points="24562,10231 25101,10231 25101,9691 24562,9691 "/>
   <polygon class="fil1" points="7294,10231 7834,10231 7834,9691 7294,9691 "/>
   <polygon class="fil1" points="5675,10770 6215,10770 6215,10231 5675,10231 "/>
   <polygon class="fil1" points="26180,10770 26720,10770 26720,10231 26180,10231 "/>
   <polygon class="fil1" points="25641,11310 26180,11310 26180,10770 25641,10770 "/>
   <polygon class="fil1" points="6215,11310 6755,11310 6755,10770 6215,10770 "/>
   <polygon class="fil1" points="5675,11849 6215,11849 6215,11310 5675,11310 "/>
   <polygon class="fil1" points="26180,11849 26720,11849 26720,11310 26180,11310 "/>
   <polygon class="fil1" points="24562,12389 25101,12389 25101,11849 24562,11849 "/>
   <polygon class="fil1" points="7294,12389 7834,12389 7834,11849 7294,11849 "/>
   <polygon class="fil1" points="6755,12929 7294,12929 7294,12389 6755,12389 "/>
   <polygon class="fil1" points="7834,12929 8373,12929 8373,12389 7834,12389 "/>
   <polygon class="fil1" points="24022,12929 24562,12929 24562,12389 24022,12389 "/>
   <polygon class="fil1" points="25101,12929 25641,12929 25641,12389 25101,12389 "/>
   <polygon class="fil1" points="24562,13468 25101,13468 25101,12929 24562,12929 "/>
   <polygon class="fil1" points="6755,14008 7294,14008 7294,13468 6755,13468 "/>
   <polygon class="fil1" points="7834,14008 8373,14008 8373,13468 7834,13468 "/>
   <polygon class="fil1" points="24022,14008 24562,14008 24562,13468 24022,13468 "/>
   <polygon class="fil1" points="25101,14008 25641,14008 25641,13468 25101,13468 "/>
   <polygon class="fil1" points="7294,14547 7834,14547 7834,14008 7294,14008 "/>
   <polygon class="fil1" points="8373,14547 8913,14547 8913,14008 8373,14008 "/>
   <polygon class="fil1" points="23482,14547 24022,14547 24022,14008 23482,14008 "/>
   <polygon class="fil1" points="24562,14547 25101,14547 25101,14008 24562,14008 "/>
   <polygon class="fil1" points="5675,15087 6215,15087 6215,14547 5675,14547 "/>
   <polygon class="fil1" points="26180,15087 26720,15087 26720,14547 26180,14547 "/>
   <polygon class="fil1" points="6215,15627 6755,15627 6755,15087 6215,15087 "/>
   <polygon class="fil1" points="5675,6453 6215,6453 6215,5914 5675,5914 "/>
   <polygon class="fil1" points="7294,11310 7834,11310 7834,10770 7294,10770 "/>
   <polygon class="fil1" points="9992,6453 10532,6453 10532,5914 9992,5914 "/>
   <polygon class="fil1" points="5675,5374 6215,5374 6215,4835 5675,4835 "/>
   <polygon class="fil1" points="7294,8072 7834,8072 7834,7533 7294,7533 "/>
   <polygon class="fil1" points="9992,5374 10532,5374 10532,4835 9992,4835 "/>
   <polygon class="fil1" points="8373,8072 8913,8072 8913,7533 8373,7533 "/>
   <polygon class="fil1" points="24562,8072 25101,8072 25101,7533 24562,7533 "/>
   <polygon class="fil1" points="7294,15627 7834,15627 7834,15087 7294,15087 "/>
   <polygon class="fil1" points="5675,12929 6215,12929 6215,12389 5675,12389 "/>
   <polygon class="fil1" points="26180,9691 26720,9691 26720,9151 26180,9151 "/>
   <polygon class="fil1" points="26180,14008 26720,14008 26720,13468 26180,13468 "/>
   <polygon class="fil1" points="8373,15627 8913,15627 8913,15087 8373,15087 "/>
   <polygon class="fil1" points="24562,3755 25101,3755 25101,3216 24562,3216 "/>
   <polygon class="fil1" points="23482,15627 24022,15627 24022,15087 23482,15087 "/>
   <polygon class="fil1" points="26180,12929 26720,12929 26720,12389 26180,12389 "/>
   <polygon class="fil1" points="23482,3755 24022,3755 24022,3216 23482,3216 "/>
   <polygon class="fil1" points="20245,3755 20784,3755 20784,3216 20245,3216 "/>
   <polygon class="fil1" points="5675,9691 6215,9691 6215,9151 5675,9151 "/>
   <polygon class="fil1" points="5675,14008 6215,14008 6215,13468 5675,13468 "/>
   <polygon class="fil1" points="21864,5374 22403,5374 22403,4835 21864,4835 "/>
   <polygon class="fil1" points="11611,3755 12151,3755 12151,3216 11611,3216 "/>
   <polygon class="fil1" points="24562,11310 25101,11310 25101,10770 24562,10770 "/>
   <polygon class="fil1" points="8373,3755 8913,3755 8913,3216 8373,3216 "/>
   <polygon class="fil1" points="7294,3755 7834,3755 7834,3216 7294,3216 "/>
   <polygon class="fil1" points="26180,5374 26720,5374 26720,4835 26180,4835 "/>
   <polygon class="fil1" points="26180,6453 26720,6453 26720,5914 26180,5914 "/>
   <polygon class="fil1" points="24562,15627 25101,15627 25101,15087 24562,15087 "/>
   <polygon class="fil1" points="9453,8072 9996,8068 9992,7532 9453,7533 "/>
   <polygon class="fil1" points="22943,3216 23482,3216 23482,2676 22944,2676 "/>
   <polygon class="fil1" points="6755,3216 7294,3216 7294,2676 6756,2676 "/>
   <polygon class="fil1" points="24022,3216 24562,3216 24562,2676 24024,2676 "/>
   <polygon class="fil1" points="7834,3216 8373,3216 8373,2676 7836,2676 "/>
   <polygon class="fil1" points="8913,3216 9453,3216 9453,2676 8915,2676 "/>
   <polygon class="fil1" points="25101,3216 25641,3216 25641,2676 25103,2676 "/>
   <polygon class="fil1" points="11071,3216 11611,3216 11611,2676 11073,2676 "/>
   <polygon class="fil1" points="12151,3216 12690,3216 12690,2676 12152,2676 "/>
   <polygon class="fil1" points="15388,3216 15928,3216 15928,2676 15390,2676 "/>
   <polygon class="fil1" points="16468,3216 17007,3216 17007,2676 16469,2676 "/>
   <polygon class="fil1" points="20784,3216 21324,3216 21324,2676 20786,2676 "/>
   <polygon class="fil1" points="19705,3216 20245,3216 20245,2676 19707,2676 "/>
   <polygon class="fil1" points="14309,3216 14849,3216 14849,2676 14311,2676 "/>
   <polygon class="fil1" points="18626,3216 19166,3216 19166,2676 18628,2676 "/>
   <polygon class="fil1" points="17547,3216 18086,3216 18086,2676 17548,2676 "/>
   <polygon class="fil1" points="9992,3216 10532,3216 10532,2676 9994,2676 "/>
   <polygon class="fil1" points="21864,3216 22403,3216 22403,2676 21865,2676 "/>
   <polygon class="fil1" points="5675,3216 6215,3216 6215,2676 5677,2676 "/>
   <polygon class="fil1" points="13230,3216 13770,3216 13770,2676 13232,2676 "/>
   <polygon class="fil1" points="26180,3216 26720,3216 26720,2676 26182,2676 "/>
   <polygon class="fil1" points="8913,8612 9451,8611 9453,8072 8913,8072 "/>
   <polygon class="fil1" points="5136,12389 5675,12389 5675,11849 5136,11853 "/>
   <polygon class="fil1" points="5136,13468 5675,13468 5675,12929 5136,12932 "/>
   <polygon class="fil1" points="5136,9151 5675,9151 5675,8612 5136,8615 "/>
   <polygon class="fil1" points="26720,5914 27260,5914 27260,5378 26720,5374 "/>
   <polygon class="fil1" points="26720,10231 27260,10231 27260,9694 26720,9691 "/>
   <polygon class="fil1" points="26720,12389 27260,12389 27260,11853 26720,11849 "/>
   <polygon class="fil1" points="26720,9151 27260,9151 27260,8615 26720,8612 "/>
   <polygon class="fil1" points="26720,4835 27260,4835 27260,4298 26720,4295 "/>
   <polygon class="fil1" points="5136,10231 5675,10231 5675,9691 5136,9694 "/>
   <polygon class="fil1" points="5136,5914 5675,5914 5675,5374 5136,5378 "/>
   <polygon class="fil1" points="26720,13468 27260,13468 27260,12932 26720,12929 "/>
   <polygon class="fil1" points="5136,4835 5675,4835 5675,4295 5136,4298 "/>
   <polygon class="fil1" points="26720,6993 27260,6993 27260,6457 26720,6453 "/>
   <polygon class="fil1" points="5136,14547 5675,14547 5675,14008 5136,14011 "/>
   <polygon class="fil1" points="26720,14547 27260,14547 27260,14011 26720,14008 "/>
   <polygon class="fil1" points="5136,6993 5675,6993 5675,6453 5136,6457 "/>
   <polygon class="fil1" points="5136,11310 5675,11310 5675,10770 5136,10774 "/>
   <polygon class="fil1" points="5136,8072 5675,8072 5675,7533 5136,7536 "/>
   <polygon class="fil1" points="26720,3755 27260,3755 27260,3219 26720,3216 "/>
   <polygon class="fil1" points="5136,15627 5675,15627 5675,15087 5136,15090 "/>
   <polygon class="fil1" points="26720,11310 27260,11310 27260,10774 26720,10770 "/>
   <polygon class="fil1" points="26720,8072 27260,8072 27260,7536 26720,7533 "/>
   <polygon class="fil1" points="5136,3755 5675,3755 5675,3216 5136,3219 "/>
   <polygon class="fil1" points="26720,15627 27260,15627 27260,15090 26720,15087 "/>
   <polygon class="fil1" points="23482,13468 24022,13468 24022,12929 23484,12930 "/>
   <polygon class="fil1" points="19705,4835 19705,4295 19166,4295 19166,4831 "/>
   <polygon class="fil1" points="10532,5914 11070,5912 11071,5374 10532,5374 "/>
   <polygon class="fil1" points="22943,15087 23482,15087 23482,14547 22945,14549 "/>
   <polygon class="fil1" points="9992,15087 10532,15087 10530,14549 9992,14547 "/>
   <polygon class="fil1" points="18628,4293 19166,4295 19166,3755 18626,3755 "/>
   <polygon class="fil1" points="18088,3753 18626,3755 18626,3216 18086,3216 "/>
   <polygon class="fil1" points="20786,5372 21324,5374 21324,4835 20784,4835 "/>
   <polygon class="fil1" points="23484,12387 24022,12389 24022,11849 23482,11849 "/>
   <polygon class="fil1" points="21866,6451 22403,6453 22403,5914 21864,5914 "/>
   <polygon class="fil1" points="21328,5913 21864,5914 21864,5374 21324,5374 "/>
   <polygon class="fil1" points="22403,15627 22943,15627 22943,15087 22406,15090 "/>
   <polygon class="fil1" points="23482,11310 24022,11310 24022,10770 23485,10773 "/>
   <polygon class="fil1" points="8373,10231 8910,10227 8913,9691 8373,9691 "/>
   <polygon class="fil1" points="8373,13468 8913,13468 8910,12932 8373,12929 "/>
   <polygon class="fil1" points="23486,8069 24022,8072 24022,7533 23482,7533 "/>
   <polygon class="fil1" points="9992,7532 10526,7532 10532,6993 9992,6993 "/>
   <polygon class="fil1" points="16464,3752 16468,3216 15928,3216 15929,3755 "/>
   <polygon class="fil1" points="17552,16162 18086,16166 18086,15627 17547,15627 "/>
   <polygon class="fil1" points="20243,5372 20245,4835 19705,4835 19710,5372 "/>
   <polygon class="fil1" points="21324,15627 21864,15627 21861,15093 21323,15089 "/>
   <polygon class="fil1" points="8373,12389 8910,12386 8911,11851 8373,11849 "/>
   <polygon class="fil1" points="17011,3752 17545,3753 17547,3216 17007,3216 "/>
   <polygon class="fil1" points="8373,11310 8911,11308 8910,10774 8373,10770 "/>
   <polygon class="fil1" points="23486,10227 24022,10231 24022,9691 23485,9694 "/>
   <polygon class="fil1" points="23486,9148 24022,9151 24022,8612 23485,8615 "/>
   <polygon class="fil1" points="11611,15627 12151,15627 12148,15108 12030,15114 12003,15084 11613,15089 "/>
   <polygon class="fil1" points="12151,4295 12681,4286 12690,3755 12151,3755 "/>
   <polygon class="fil1" points="13770,3755 14300,3746 14309,3216 13770,3216 "/>
   <polygon class="fil1" points="9453,14547 9992,14547 9981,14019 9453,14008 "/>
   <path class="fil1" d="M20244 15141l0 41 1 445 539 0 1 -539 -432 4c-11,14 -65,-19 -11,90 -112,-42 28,-45 -98,-41z"/>
   <polygon class="fil1" points="12151,5374 12686,5369 12685,4844 12151,4835 "/>
   <path class="fil1" d="M11071 15087l542 2 -6 -540c-175,1 -383,-16 -539,25l14 9c8,32 -6,420 -11,504z"/>
   <polygon class="fil1" points="19166,15627 19705,15627 19701,15091 19175,15096 "/>
   <polygon class="fil1" points="14851,3735 15152,3748 15376,3769 15388,3216 14849,3216 "/>
   <polygon class="fil1" points="13230,4271 13697,4280 13760,4269 13770,3755 13230,3755 "/>
   <path class="fil1" d="M8913 9691l409 -27c63,-5 93,-59 119,-83 2,-3 8,-9 12,-13l-9 -423 -531 6 0 540z"/>
   <path class="fil1" d="M17007 15627l540 0 -5 -535 -226 -11c-33,63 -25,71 -93,123 -80,-69 9,-116 -208,-121l-8 544z"/>
   <path class="fil1" d="M18086 15627l540 0 0 -516 -192 3 -39 88c-170,-119 105,-111 -305,-111l-4 536z"/>
   <path class="fil1" d="M22976 13887c3,83 44,-16 -13,116l519 5 0 -540 -522 6 16 413z"/>
   <path class="fil1" d="M22415 7828c15,29 4,8 30,43 22,29 18,20 47,60 28,39 43,73 69,114 116,46 249,35 376,27l6 -539 -540 -2 12 297z"/>
   <path class="fil1" d="M21930 7044c5,90 32,104 41,218 7,87 -3,158 8,237 97,67 298,25 424,32l0 -538 -457 2 -16 49z"/>
   <path class="fil1" d="M23007 11369l97 238c38,52 22,-55 43,106 4,30 -10,102 -15,140l350 -4 0 -539c-99,0 -200,9 -296,7 -100,-2 -134,-39 -179,52z"/>
   <path class="fil1" d="M12690 15627c82,0 164,1 245,1 12,0 102,-1 108,-3 113,-22 61,30 78,-48l-63 -319 -34 -164 -325 -5 -9 538z"/>
   <path class="fil1" d="M16630 15907c95,26 23,-5 98,48 34,24 77,64 87,71 104,60 86,14 188,97l4 -496 -539 5 13 203c49,23 97,59 149,72z"/>
   <polygon class="fil1" points="19166,16490 19704,16490 19705,16166 19166,16166 "/>
   <polygon class="fil1" points="9453,16490 9991,16490 9992,16166 9453,16166 "/>
   <polygon class="fil1" points="18086,16490 18624,16490 18626,16166 18086,16166 "/>
   <polygon class="fil1" points="21324,16490 21862,16490 21864,16166 21324,16166 "/>
   <polygon class="fil1" points="22403,16490 22941,16490 22943,16166 22403,16166 "/>
   <polygon class="fil1" points="10532,16490 11070,16490 11071,16166 10532,16166 "/>
   <polygon class="fil1" points="6215,16490 6753,16490 6755,16166 6215,16166 "/>
   <polygon class="fil1" points="25641,16490 26179,16490 26180,16166 25641,16166 "/>
   <polygon class="fil1" points="11611,16490 12149,16490 12151,16166 11611,16166 "/>
   <polygon class="fil1" points="20245,16490 20783,16490 20784,16166 20245,16166 "/>
   <polygon class="fil1" points="7294,16490 7832,16490 7834,16166 7294,16166 "/>
   <polygon class="fil1" points="23482,16490 24020,16490 24022,16166 23482,16166 "/>
   <polygon class="fil1" points="24562,16490 25100,16490 25101,16166 24562,16166 "/>
   <polygon class="fil1" points="8373,16490 8911,16490 8913,16166 8373,16166 "/>
   <polygon class="fil1" points="26720,16490 27260,16490 27260,16170 26720,16166 "/>
   <polygon class="fil1" points="5136,16490 5674,16490 5675,16166 5136,16170 "/>
   <polygon class="fil1" points="12690,16490 13228,16490 13225,16171 12690,16166 "/>
   <path class="fil1" d="M10532 6993l298 1c-17,-110 -43,-227 -8,-353 31,-112 -29,-35 54,-98 35,-14 38,27 24,-54 -77,-62 -256,-30 -368,-36l0 540z"/>
  </g>
  <g id="_3059541477168">
   <g>
    <path class="fil2" d="M13850 4995c348,-60 890,-934 113,-1692l-119 -17c-131,-63 -212,-70 -335,-16 -97,43 -178,135 -243,203 -154,160 -239,371 -239,645 0,310 75,430 259,627 204,218 241,218 564,250z"/>
    <path class="fil2" d="M13506 9119c102,-213 91,-260 -12,-475l-180 1c-82,268 -108,514 192,474z"/>
    <path class="fil2" d="M7061 8717c69,38 81,59 143,111 26,22 60,51 87,70 100,68 30,25 94,50 105,-20 -1,25 64,-54 34,-40 -8,-28 55,-68 -26,-59 24,7 -54,-86 -28,-33 -44,-44 -77,-79 -66,-72 -100,-118 -162,-199 -82,32 -56,11 -100,94 -35,67 -34,92 -50,161z"/>
   </g>
   <g>
    <path class="fil3" d="M17120 7208l-29 215c221,6 515,41 652,149 41,24 82,15 144,87l44 71c3,5 7,18 13,26 90,-220 462,105 609,-180l7 142 35 0 68 -409c184,0 465,128 642,191l615 221 -27 238c164,-26 395,21 632,49 157,18 90,-77 117,106 67,-42 22,1 66,-69 -15,-225 -6,-372 54,-558 -29,-104 22,-34 -53,-94 -51,44 -84,61 -215,7 -211,-86 58,-44 -204,-78 -129,-17 -154,12 -281,-27 -365,-112 -183,-30 -540,-56 -305,-23 23,-87 -783,-86l-39 -103c-83,0 -317,7 -383,-8 -192,-45 25,12 -128,-67 -96,-48 57,-39 -148,-39l-748 23 -20 -127c-70,84 -88,240 -100,376z"/>
    <path class="fil3" d="M10097 3532c151,-80 381,-225 583,-333 221,-119 454,-218 634,-342 35,25 15,56 64,142 12,-5 28,-28 34,-17l166 -47c71,-112 60,-118 151,-218 99,-109 55,-49 132,-182 72,-122 168,-220 263,-339 26,-102 -19,-45 45,-95 -120,-6 -305,-58 -421,-71 -134,-15 -322,-7 -460,-5 0,374 -48,439 -233,530l-1282 675c-146,69 -170,44 -208,184 147,4 415,76 532,118z"/>
    <path class="fil3" d="M18966 10802c-215,-99 10,27 -86,-185 -38,-83 -135,-132 -212,-155l371 -66c-114,11 -244,43 -355,52 -134,11 -446,-68 -187,-189 182,-85 234,48 350,-93l-535 3 3 738c173,17 535,-54 563,-63 100,-33 44,-11 88,-42z"/>
    <path class="fil3" d="M19486 15618l-5 50c-42,253 -426,217 -638,215 -247,-3 -227,10 -300,79 402,105 811,121 1110,-104 18,-206 -50,-230 -158,-330l-9 90z"/>
   </g>
   <g>
    <path class="fil4" d="M21711 11625l-337 116c134,128 521,158 759,420 129,21 121,54 260,96 128,-71 264,407 879,206 177,-58 104,-47 386,-44 86,1 316,9 387,-7 183,-43 -4,-6 121,-61l891 3c116,29 9,-20 78,35l97 -107c-59,-260 -331,-601 -514,-747 -82,-28 -99,-43 -160,-82l-86 242c-132,25 -281,57 -423,57 -416,-2 -338,-106 -344,-139 -14,-19 20,-32 -99,-79l27 -151 -74 126c-5,11 -9,41 -11,51 -37,210 1,129 47,211 -66,3 -60,14 -104,-10 -78,-44 13,-152 -107,-179 -152,0 -321,7 -471,0 -235,-11 -148,-58 -354,-1 -270,76 -540,4 -848,44z"/>
    <path class="fil4" d="M12381 13077c-210,156 -460,165 -595,285 216,23 192,60 237,87 239,143 -37,-82 364,169 5,3 13,11 18,13 131,62 139,-60 287,82 6,6 12,16 18,22 5,5 12,15 18,21 51,53 19,32 84,75l105 52c58,25 87,29 144,53 77,31 110,35 159,121 4,7 14,31 17,39 2,5 7,16 9,21 1,5 6,16 7,21l-2 112c82,-27 89,-39 151,-74 32,49 21,-11 0,85 265,-91 449,-268 647,-431 -73,-61 -191,-40 -278,-99l-416 -285c-200,-207 -245,-57 -397,-232 -22,-25 -43,-88 -124,-130l-7 -145 -5 -23 -204 8 -237 153z"/>
    <path class="fil4" d="M8062 10831c-105,94 -363,114 -500,214l359 13c54,85 -2,-59 -2,78l2 40c302,-157 254,74 644,90 -132,1 -100,6 -178,49l147 65c52,15 81,20 167,28 -138,72 -8,-6 -78,98 414,-21 404,0 756,57 -80,-283 -259,-286 -350,-536 190,0 262,-7 410,65 221,108 111,132 263,175 -37,-152 -235,-588 -333,-720 -341,16 -969,237 -1207,276 -122,20 65,12 -100,8z"/>
    <path class="fil4" d="M18825 8041l347 57 -214 1859c-12,208 19,182 -111,209 -116,141 -168,8 -350,93 -259,121 53,200 187,189 111,-9 241,-41 355,-52l132 4c-2,-278 12,-1160 121,-1344 -26,-397 125,-755 145,-1147l-522 -74 -156 -1c36,87 30,123 66,207z"/>
    <path class="fil4" d="M19884 10522c-26,31 -17,-10 -52,84 -61,167 -52,520 334,445 186,-35 475,-375 486,-646 -151,14 -586,0 -703,66l-65 51z"/>
    <path class="fil4" d="M16790 11142c-38,101 -212,73 -334,68 -22,-1 -237,-12 -238,-12 -166,23 -103,-75 -162,85l620 94c225,43 417,20 638,-53 136,-46 155,-28 203,-168 81,-237 73,-587 9,-812 -167,158 -38,269 -131,746 -102,-65 -367,-45 -488,-8 -10,3 -21,8 -30,11l-87 49z"/>
    <path class="fil4" d="M20245 9693c-59,304 -124,512 203,580l43 -41c226,-226 149,-323 353,-365l18 -182c-69,-51 -34,-35 -139,-56 0,0 -173,-18 -176,-19 -284,-14 -79,30 -302,83z"/>
    <path class="fil4" d="M8088 14467c0,0 128,35 -41,189 -38,34 -130,68 -179,79 -181,38 -376,46 -571,33 109,152 222,186 576,136 121,-18 161,-29 230,-111 36,-42 17,-34 71,-89 104,-108 19,37 93,-94 -39,-125 -64,-144 -181,-175l2 32z"/>
    <path class="fil4" d="M14651 15513c42,115 44,121 198,148 284,49 867,-1 657,-335 -150,37 -7,160 -311,198 -215,27 -356,31 -544,-11z"/>
    <path class="fil4" d="M23372 14351c291,139 568,128 696,-132 -34,-99 -29,-115 -108,-181 -15,138 15,200 -153,236 -229,50 -300,-49 -435,77z"/>
   </g>
   <g>
    <path class="fil5" d="M17220 6832l20 127 748 -23c205,0 52,-9 148,39 153,79 -64,22 128,67 66,15 300,8 383,8l39 103c806,-1 478,63 783,86 357,26 175,-56 540,56 127,39 152,10 281,27 262,34 -7,-8 204,78 131,54 164,37 215,-7 75,60 24,-10 53,94 79,-86 9,-22 104,-65 149,-53 206,-25 363,-15l174 -2 -19 509c85,-211 22,-515 41,-742l153 -46c-10,-5 -23,-11 -30,-14 -8,-3 -21,-10 -31,-13l-2576 -643c-189,-42 -399,-49 -577,-104 -438,-134 -426,-107 -811,-120 -5,0 -16,-2 -21,-2l-123 -90 -43 58c-78,135 -153,491 -146,634z"/>
    <path class="fil5" d="M19039 10396l-371 66c77,23 174,72 212,155 96,212 -129,86 86,185 192,30 414,-18 610,-70 -34,-454 52,-971 92,-1426 -93,90 -41,-113 -81,109 20,-81 -107,-116 -196,-190l-95 228 -4 -397c-109,184 -123,1066 -121,1344l-132 -4z"/>
    <path class="fil5" d="M10427 11073c-60,-255 -85,-397 -71,-708 -142,60 -360,51 -570,93l448 428c109,142 29,123 193,187z"/>
   </g>
   <g>
    <path class="fil6" d="M14285 10204c-55,712 139,1921 177,2580 36,59 63,60 75,72l268 0 162 580c242,50 868,200 1106,176 159,-1 517,39 594,100l52 -780c-4,7 -11,9 -13,21l-52 81c-4,8 -13,22 -20,33l-51 -199c-172,-3 -617,-49 -791,-134 -252,-123 -352,-19 -594,-62 -169,-29 -61,-54 -217,-72l-82 -15c-108,-24 -119,-525 -94,-676 -9,-238 49,-878 -50,-1036 -57,207 4,468 4,692l-115 -991c-12,-117 -15,-230 -21,-348 -154,-79 -201,94 -182,-214 -4,174 -30,162 -42,317 -10,-10 -23,-22 -31,-30l-83 -95z"/>
    <path class="fil6" d="M10211 6546l-124 29c270,-72 560,-205 859,-301 460,-146 547,-51 554,-550 164,-112 288,-279 432,-453 134,-162 118,-53 222,-213 5,-7 8,-19 13,-26 94,-147 99,-57 214,-172 3,-4 105,-167 108,-174 42,-108 27,-94 38,-232l211 110c-50,-201 -109,-418 -59,-656 46,-222 87,-262 181,-413 3,-6 10,-17 14,-23 3,-5 10,-18 12,-23l22 -46c-41,-43 63,-36 -100,-34 -51,112 -34,77 -101,174l-299 373c-99,50 18,-80 -130,98l-221 288c-98,117 -86,75 -204,148l-579 634c-7,9 -26,36 -32,45 -166,234 -85,76 -240,232 -53,54 -40,48 -74,83l-342 356c-4,7 -10,17 -14,24l-176 223c-19,19 -39,37 -59,57l-95 99c-6,6 -13,15 -19,21l-101 99c-7,5 -16,12 -23,18 -6,5 -16,12 -22,17l-79 65c-120,121 12,149 -281,296 144,-25 388,-54 494,-173z"/>
    <path class="fil6" d="M23422 11166c-12,245 -412,215 -325,-12 119,-71 188,-82 325,12zm-1711 459c308,-40 578,32 848,-44 206,-57 119,-10 354,1 150,7 319,0 471,0 120,27 29,135 107,179 44,24 38,13 104,10 -46,-82 -84,-1 -47,-211 2,-10 6,-40 11,-51l74 -126c127,-144 597,-146 734,57 -21,138 -79,171 -236,188 -143,16 -285,9 -426,-15 6,33 -72,137 344,139 142,0 291,-32 423,-57l86 -242c61,39 78,54 160,82 -556,-478 -1629,-893 -2486,-1003 -263,-34 -389,-107 -563,14 -137,96 -675,545 -634,669 320,-332 961,-435 1405,-201 -94,72 -709,243 -871,297 100,127 211,128 376,199 -58,56 -1,21 -105,71 -39,19 -93,29 -129,44z"/>
    <path class="fil6" d="M13059 3292c174,-83 619,-263 785,-6l119 17c253,-54 69,93 275,-106 151,-146 145,-104 204,-265 58,-160 35,-114 162,-183l-25 -152c-52,-23 -236,-235 -301,-294 -86,-76 -229,-211 -323,-306l-110 196c-5,7 -20,29 -26,37l-196 235c-193,155 -32,33 -148,204 -64,93 -138,84 -251,215l-156 197c-7,9 -30,32 -37,41 -45,59 -32,16 -58,97 51,96 9,16 86,73z"/>
    <path class="fil6" d="M14049 13830c123,-114 359,-335 400,-457l-38 -108c-160,-3 -56,-64 -424,-77 -337,-12 -101,-28 -345,-100 -110,-33 -668,-127 -815,-149l7 145c81,42 102,105 124,130 152,175 197,25 397,232l416 285c87,59 205,38 278,99z"/>
    <path class="fil6" d="M12252 12935l227 13 -12 -216 -44 -235c-196,-83 -162,-90 -342,-118l-10 286 -966 -123c-140,-26 -359,-156 -483,0 -62,-263 36,-80 -170,-163l-102 -420 62 635c139,84 1567,325 1840,341z"/>
    <path class="fil6" d="M16724 9595c-423,-35 -678,72 -1010,-91 49,227 356,254 626,298l403 6c407,2 714,2 1020,-151l44 -871c-77,253 -67,563 -152,797l-58 -43c-1,-7 -4,-11 -7,-15l-866 70z"/>
    <path class="fil6" d="M16904 8286c-60,18 -227,21 -331,19 -44,-1 -161,-9 -198,-5 -209,23 -69,-23 -149,58l236 103 460 66c253,20 552,58 783,-39 140,-98 170,-226 168,-456l-27 -177c-2,-8 -6,-21 -11,-31l-88 470c-70,-12 -248,-21 -391,-19 -155,1 -297,-3 -452,11z"/>
    <path class="fil6" d="M21229 7407c-157,-10 -214,-38 -363,15 -74,220 -166,496 -26,645 158,-13 50,73 185,-159 5,-10 23,-39 28,-49l176 -452z"/>
   </g>
   <g>
    <path class="fil7" d="M24777 12464c2,11 5,27 4,34 -16,206 -300,138 -388,99l19 -165c151,-10 250,-19 365,32zm-2224 931c66,77 31,-43 38,82 5,83 1,56 -30,116l108 30c134,-139 253,-148 520,-143 124,2 213,10 308,42 139,48 144,52 174,163 96,98 68,147 -53,182l-273 40c-247,29 -525,38 -718,-25 59,334 365,298 718,298 3,-212 -47,-272 187,-278 224,-5 197,91 395,72 30,-93 86,-151 -68,-313l-49 -42c211,17 122,-7 200,129 110,-81 52,-60 200,-51 147,9 388,32 529,-9 326,-96 139,-97 248,96 37,-88 66,-117 160,-148l45 203c76,-115 112,-273 146,-442 41,-512 -9,-635 -82,-1083l-24 -32 -97 107c-69,-55 38,-6 -78,-35l-891 -3c-125,55 62,18 -121,61 -71,16 -301,8 -387,7 -282,-3 -209,-14 -386,44 -615,201 -751,-277 -879,-206 91,160 290,219 356,491 72,297 -98,467 -196,647z"/>
    <path class="fil7" d="M6238 11650l195 -43c38,103 -21,52 24,125l72 97c80,234 -150,-46 47,107 2,1 11,8 13,9 121,82 607,-44 823,69 159,83 89,19 156,169 -177,151 -275,113 -551,114 -21,0 -83,2 -102,5 -366,47 319,253 601,184 208,-50 196,-148 211,11 97,-51 158,-128 271,-200 77,-48 186,-112 296,-171 223,-122 403,-201 632,-295 -103,-127 -305,-111 -519,-208l216 -117c70,-104 -60,-26 78,-98 -86,-8 -115,-13 -167,-28l-147 -65c78,-43 46,-48 178,-49 -390,-16 -342,-247 -644,-90l-2 -40c0,-137 56,7 2,-78l-359 -13c-195,32 -917,354 -1158,481l-166 124z"/>
    <path class="fil7" d="M10818 3738l-324 371c-90,89 -85,90 -160,191 -83,111 -73,121 -237,132l23 196c-188,63 -226,190 -402,387l-774 913c-5,6 -12,16 -17,22 -73,84 0,4 -57,59l-633 695c-208,241 -40,205 18,406l220 -5c129,-163 277,-319 405,-462 88,-99 128,-105 214,-216 71,-92 88,-118 179,-220l556 -730c165,-250 123,-142 305,-357 53,-62 76,-101 134,-177l1352 -1584 -151 -54c-5,-2 -15,-6 -20,-8 0,0 -68,-43 -255,5 -48,185 -14,93 -265,337 -7,7 -56,51 -64,58l-47 41z"/>
    <path class="fil7" d="M17559 5483c128,19 415,261 491,394 179,142 290,347 498,447l167 -315c-37,-125 -223,-270 -309,-356 -121,-120 -209,-248 -366,-323l-1164 -1006c-210,-239 -142,-213 -487,-457l-662 -663c-97,-90 -273,-280 -395,-352 -184,-108 -242,-36 -293,-35 -193,4 -55,-32 -279,-93 57,186 187,233 396,463l496 404c30,28 44,41 80,73l217 224c56,59 16,18 58,58 35,33 42,36 81,73 25,23 76,80 95,98l1187 1083c39,39 60,63 98,102 88,91 129,64 91,181z"/>
    <path class="fil7" d="M10544 13639l442 -26 484 11 134 13 58 216 284 -3c0,168 -70,207 -192,212 -143,6 -155,-73 -232,-154 -255,19 -480,73 -781,70 202,408 714,97 890,189 85,45 113,111 95,199 175,3 93,-21 235,78 339,238 282,214 522,223l-110 102c225,-59 950,-380 1029,-508 21,-96 32,-36 0,-85 -62,35 -69,47 -151,74l2 -112c-1,-5 -6,-16 -7,-21 -2,-5 -7,-16 -9,-21 -3,-8 -13,-32 -17,-39 -49,-86 -82,-90 -159,-121 -57,-24 -86,-28 -144,-53l-105 -52c-65,-43 -33,-22 -84,-75 -6,-6 -13,-16 -18,-21 -6,-6 -12,-16 -18,-22 -148,-142 -156,-20 -287,-82 -5,-2 -13,-10 -18,-13 -401,-251 -125,-26 -364,-169 -45,-27 -21,-64 -237,-87l-1242 277z"/>
    <path class="fil7" d="M16922 8527c130,102 347,34 518,71l146 60c8,-11 26,14 37,24 -214,-5 -516,-49 -664,56 -96,115 -22,463 -138,678 -15,30 -42,70 -47,79 -43,78 0,-24 -50,100l866 -70c3,4 6,8 7,15l58 43c85,-234 75,-544 152,-797 -77,-68 -29,51 -93,-106 -64,-157 -34,-32 -9,-192 -231,97 -530,59 -783,39z"/>
    <path class="fil7" d="M17026 7431c-42,220 -25,276 -28,487 -3,222 -58,230 -94,368 155,-14 297,-10 452,-11 143,-2 321,7 391,19l88 -470c-8,-211 -7,-96 -92,-252 -137,-108 -431,-143 -652,-149l29 -215 -94 223z"/>
    <path class="fil7" d="M16790 11142l87 -49c9,-3 20,-8 30,-11 121,-37 386,-57 488,8 93,-477 -36,-588 131,-746l-202 0c-134,103 -298,65 -488,109l-46 689z"/>
    <path class="fil7" d="M10442 11111l2 15c241,164 340,182 720,89l-18 -673c-68,50 -91,-170 -93,473 -134,30 -229,1 -351,26 -155,31 6,34 -260,70z"/>
    <path class="fil7" d="M14162 1756l182 -103c-10,-122 -87,-291 -168,-383 -49,-56 -12,-18 -73,-61 -38,117 -110,155 -105,295 4,108 92,171 164,252z"/>
   </g>
   <g>
    <path class="fil8" d="M9273 6207c-91,102 -108,128 -179,220 -86,111 -126,117 -214,216 -128,143 -276,299 -405,462l913 -186 4266 -4856c91,-101 87,-84 145,-190 -218,-265 -580,-233 -786,17 -888,1083 -1763,2044 -2657,3097l-1083 1220z"/>
    <path class="fil8" d="M9735 7095l1635 -346c2065,-352 3089,-515 5316,-706l733 -38 -10 135 123 90c5,0 16,2 21,2 385,13 373,-14 811,120 178,55 388,62 577,104l2576 643c10,3 23,10 31,13 7,3 20,9 30,14l1078 276 179 25 109 -293 -211 -195 35 130c-276,3 -2518,-622 -3077,-780 -334,-95 -675,-213 -976,-280l-167 315c-208,-100 -319,-305 -498,-447 -2891,149 -5921,468 -8423,1173 55,46 -84,40 108,45z"/>
    <path class="fil8" d="M14162 1756c148,88 231,83 381,204 101,80 197,191 289,251 66,-85 -6,-56 18,-117l235 2c96,171 -37,148 223,233l520 223c31,10 -11,9 88,30 188,40 239,-35 403,71 294,189 149,37 392,153 151,73 55,60 286,70l49 295 528 23c3,12 17,14 22,18 155,111 106,54 282,109l406 182c526,271 369,-171 729,171 142,135 54,125 234,132 -61,-107 -97,-141 -210,-196 34,-120 49,-88 101,-196l-173 -183 41 137c-181,-19 -2051,-725 -2357,-848 -385,-156 -783,-292 -1171,-431 -288,-103 -903,-405 -1134,-436l-182 103z"/>
    <path class="fil8" d="M8231 8694c-3,188 -26,356 -153,475 -249,-9 -368,-248 -574,-343 -63,40 -21,28 -55,68 -65,79 41,34 -64,54 91,159 256,213 248,419l-512 -25 -43 23 -9 231c386,-50 779,7 1012,195 188,153 300,483 471,700 147,20 294,-4 396,-39 -113,-532 101,-733 257,-1136 -4,-102 72,-45 -76,-138 -71,-44 -38,-34 -116,-13 -55,132 -131,261 -195,393l-138 294c-31,52 -26,44 -54,76l-87 -125c-186,-371 -104,-768 5,-1115 -36,-201 -72,-4 -219,-198 -9,9 -17,23 -22,31 -5,9 -14,21 -20,31l-52 142z"/>
    <path class="fil8" d="M12467 12732l12 216 -227 -13 143 8 -14 134 237 -153c24,-172 -25,-840 -51,-1035 -25,-187 -42,-300 -52,-489 -15,-280 -17,-254 -5,-518 -24,-140 -11,-239 30,-340l-69 -52c-4,-3 -19,-4 -22,-15 -3,-11 -15,-9 -22,-14 3,-154 38,-140 3,-280 -70,-280 -24,-553 -42,-896 -11,-220 -65,-298 -68,-545 -2,-201 2,-400 -5,-602l219 -12 1692 -287 13 -196 -2082 352c-69,504 72,1855 118,2426 68,825 136,1573 192,2311z"/>
    <path class="fil8" d="M14755 10873c99,158 41,798 50,1036l55 0c109,-128 119,-56 157,-197 20,-78 2,-335 0,-429 -36,-1384 1,-2691 11,-4071 -31,-26 -28,-27 -80,-58 -98,-58 133,37 -57,-19 -125,-3 -110,-90 -120,350 -3,157 -5,313 -6,470 -5,605 35,2641 -10,2918z"/>
    <path class="fil8" d="M13059 3292l-151 111 -22 46c-2,5 -9,18 -12,23 -4,6 -11,17 -14,23 -94,151 -135,191 -181,413 -50,238 9,455 59,656 89,206 191,347 393,449 181,93 576,150 719,-18 -323,-32 -360,-32 -564,-250 -184,-197 -259,-317 -259,-627 0,-274 85,-485 239,-645 65,-68 146,-160 243,-203 123,-54 204,-47 335,16 -166,-257 -611,-77 -785,6z"/>
    <path class="fil8" d="M20925 9670c83,17 15,-37 73,46 32,45 47,101 55,156 19,132 3,216 -43,338 84,49 110,28 238,26 -13,-228 155,-537 259,-673 135,-177 340,-302 662,-314 60,-95 27,24 57,-102 25,-103 79,-31 -17,-99l-345 61c92,-173 107,-138 205,-264 -16,-111 -90,-143 -182,-178 -84,104 -177,269 -246,362 -94,129 -152,247 -300,310 -58,-304 8,-515 61,-803l-257 19c16,364 6,684 39,1024 -211,-68 -142,-94 -296,-180 -17,182 -29,134 37,271z"/>
    <path class="fil8" d="M23813 10073l-118 -1 -28 74c22,61 197,654 11,654 82,62 151,45 274,58 84,-83 146,-177 305,-217l87 -85c4,-15 16,-15 24,-22 0,-1 -55,-64 -55,-65l-42 -44 -168 57c37,-202 92,-261 145,-422 8,-124 9,-160 -128,-158 -18,105 -23,107 -67,211 -17,39 -21,64 -49,104 -43,61 -15,21 -72,64 -106,-77 -89,-77 -119,-208z"/>
    <path class="fil8" d="M5740 10987l-49 216c-19,83 13,38 -41,94l-174 -26c-138,27 -77,-13 -139,97 -1,2 -38,147 -39,154l195 27c176,20 181,59 275,156 143,24 118,13 184,-68 -38,-251 -112,-395 64,-606l-10 -132c-142,31 -103,65 -266,88z"/>
   </g>
   <g>
    <path class="fil9" d="M20481 12457c-83,82 -22,82 -198,146l-2481 800c-531,188 -690,186 -897,250 -66,20 -136,86 -257,98 -73,7 -215,-24 -308,-40 -131,-24 -198,-30 -267,-99 -238,24 -864,-126 -1106,-176l-518 -63c-41,122 -277,343 -400,457 -198,163 -382,340 -647,431 -79,128 -804,449 -1029,508 -1547,697 -4469,925 -6157,175 -266,-118 -582,-287 -762,-451 -98,-90 -211,-204 -286,-299 -102,-128 -144,-270 -222,-380 -117,211 350,719 624,912 1064,752 2843,962 4150,809 1060,-123 1828,-327 2731,-634 454,-155 1233,-557 1624,-867 174,-138 269,-284 423,-447l1740 351c369,39 431,137 877,-33 63,-23 127,-57 166,-73 110,-44 233,-71 351,-119l2611 -926c215,-61 471,-187 671,-198 285,-16 596,25 881,0l-65 -317c379,32 913,276 703,677l-502 560c-308,318 -36,54 -432,314l-462 239c-296,103 -395,208 -848,263 -234,29 -330,120 -593,109l242 11c313,57 1213,-220 1515,-339 226,-89 448,-180 642,-293 253,-148 369,-270 558,-418 98,-180 268,-350 196,-647 -66,-272 -265,-331 -356,-491 -139,-42 -131,-75 -260,-96 -262,57 -902,-144 -1095,-57 260,92 334,32 493,275l-68 28c-115,29 -786,-44 -859,-37 -60,101 -8,41 -123,87z"/>
    <path class="fil9" d="M25338 13397c-34,169 -70,327 -146,442 -89,373 -555,888 -813,1100 -316,261 -734,513 -1184,698 -2209,909 -6469,393 -8208,1265 -332,166 -868,593 -826,1030l-12 180 203 -356c535,-724 1789,-1002 2645,-1097 1309,-144 2696,-61 4021,-216 1687,-197 3388,-692 4218,-2171 383,-681 266,-1039 159,-1644 8,131 24,242 27,377 5,165 -1,276 -84,392z"/>
   </g>
   <g>
    <path class="fil10" d="M16719 12932l-52 780c-77,-61 -435,-101 -594,-100 69,69 136,75 267,99 93,16 235,47 308,40 121,-12 191,-78 257,-98 207,-64 366,-62 897,-250l2481 -800c176,-64 115,-64 198,-146 8,-212 44,-408 79,-596 17,-91 35,-180 47,-269 4,-29 13,-124 8,-149 -30,-151 36,-46 -65,-116 -4,135 16,108 -106,144l-1730 353c-230,46 -1946,342 -1954,425l-41 683z"/>
    <path class="fil10" d="M9388 6919l64 211 163 21 120 -56c-192,-5 -53,1 -108,-45 2502,-705 5532,-1024 8423,-1173 -76,-133 -363,-375 -491,-394 -1239,38 -2644,205 -3867,384 -616,90 -1215,206 -1797,308 -312,55 -1533,386 -1684,371 -106,119 -350,148 -494,173 293,-147 161,-175 281,-296l79 -65c6,-5 16,-12 22,-17 7,-6 16,-13 23,-18l101 -99c6,-6 13,-15 19,-21l95 -99c20,-20 40,-38 59,-57l176 -223c4,-7 10,-17 14,-24l342 -356c34,-35 21,-29 74,-83 155,-156 74,2 240,-232 6,-9 25,-36 32,-45l579 -634c118,-73 106,-31 204,-148l221 -288c148,-178 31,-48 130,-98l299 -373c67,-97 50,-62 101,-174 163,-2 59,-9 100,34l151 -111c-77,-57 -35,23 -86,-73 26,-81 13,-38 58,-97 7,-9 30,-32 37,-41l156 -197c113,-131 187,-122 251,-215 116,-171 -45,-49 148,-204l196 -235c6,-8 21,-30 26,-37l110 -196c-79,-51 -95,-79 -156,-124 -58,106 -54,89 -145,190l-4266 4856z"/>
    <path class="fil10" d="M20652 10405c-11,271 -300,611 -486,646 -386,75 -395,-278 -334,-445 35,-94 26,-53 52,-84 -15,-60 17,-35 -36,-39 -83,202 -87,377 -35,575 268,88 417,7 682,-13l72 -75c26,-27 49,-49 78,-76 61,-58 104,-102 161,-154 89,-82 79,-57 184,-124 59,-38 45,-25 91,-69l81 -92 -475 -18c-28,-245 -49,-143 98,-226l59 -344c-204,42 -127,139 -353,365l-43 41c-327,-68 -262,-276 -203,-580 -95,-27 -97,400 -32,566 129,85 227,84 392,54 58,52 37,-14 47,92z"/>
    <path class="fil10" d="M20762 7487c-60,186 -69,333 -54,558 24,102 63,104 163,165 190,23 226,44 365,-49 112,-75 100,-105 148,-247l19 -509 -174 2 -176 452c-5,10 -23,39 -28,49 -135,232 -27,146 -185,159 -140,-149 -48,-425 26,-645 -95,43 -25,-21 -104,65z"/>
    <path class="fil10" d="M14411 13265l38 108 518 63 -162 -580 -268 0c-12,-12 -39,-13 -75,-72 0,156 27,374 -51,481z"/>
    <path class="fil10" d="M18525 8040l300 1c-36,-84 -30,-120 -66,-207l156 1c-63,-42 -78,-25 -175,-46 -141,-29 -171,31 -145,-71l-35 0 -35 322z"/>
   </g>
   <g>
    <path class="fil11" d="M14354 19112c-82,-86 -161,-198 -198,-347 -124,34 -23,34 -111,-24 -33,-22 -66,-67 -95,-92l-178 130c-9,3 -19,7 -29,10l-2847 14c-932,-2 -337,93 -980,75 -19,-156 -49,-381 -35,-588 -158,233 97,1325 229,1492l199 270c314,0 3869,46 4085,-29 12,-4 44,-21 56,-25 302,-98 53,47 361,54 0,-331 10,-150 -311,-550 -5,-6 -14,-15 -18,-21 -5,-7 -13,-16 -17,-23 -34,-52 -14,-21 -39,-78l-42 -115c-42,-134 -43,79 -30,-153z"/>
    <path class="fil11" d="M15017 11283c2,94 20,351 0,429 -38,141 -48,69 -157,197 46,36 -9,8 72,37l906 131c377,2 673,98 852,-50 -67,-131 148,-86 -393,-132l-1186 -164c17,-55 29,-25 23,-103 38,17 16,16 107,30l472 -9c261,-41 -178,52 67,-15l208 -63c17,-3 116,-11 133,-12 74,-5 139,-7 256,-22 13,-34 11,-57 11,-62 0,-2 -9,-10 -11,-16 322,-35 -22,94 311,107l-12 -189 -620 -94c-86,-52 -60,33 -98,-157l-12 -581c73,-346 481,-102 815,-216 -2,-191 51,-362 -18,-521l-403 -6c41,22 14,17 115,45l294 27 -39 433c-381,-9 -484,-109 -831,76 -5,171 -15,322 3,491 7,63 12,185 23,253 30,185 -39,59 66,146l-314 151c-137,39 -381,17 -547,11l-25 140c-3,-138 1,-185 -68,-292z"/>
    <path class="fil11" d="M11164 11215c-380,93 -479,75 -720,-89 38,238 6,217 -99,348l172 73c75,15 148,15 223,20 171,14 237,49 386,76 234,42 553,103 819,107 16,-232 -29,-1051 -131,-1198 -49,249 66,389 15,809 -29,238 8,4 -67,189 -85,-23 -49,-17 -105,-53 -123,-80 -95,-100 -203,-85 -165,23 7,0 -88,32 0,0 -87,113 -195,-3 -61,-65 -45,-127 -7,-226z"/>
    <path class="fil11" d="M22669 13623l-4 156c-43,-108 51,37 63,55 149,-44 388,-24 575,-35 109,-7 315,-15 368,-114 -30,-111 -35,-115 -174,-163 -95,-32 -184,-40 -308,-42 -267,-5 -386,4 -520,143z"/>
    <path class="fil11" d="M19481 15668l5 -50 -229 -169c-58,-26 -820,-203 -841,214l1065 5z"/>
    <path class="fil11" d="M8088 14467l-2 -32c-190,-51 -149,-139 -556,-97 -201,21 -324,77 -302,290 486,-24 464,-58 860,-161z"/>
    <path class="fil11" d="M11470 13624l-484 -11c-184,169 -197,39 -202,254 150,53 495,-8 675,-72l100 -46c-9,-10 -30,-36 -34,-43l-55 -82z"/>
    <path class="fil11" d="M14647 15404c238,46 560,15 712,-78 -95,-124 -188,-125 -392,-122 -197,2 -350,1 -320,200z"/>
    <path class="fil11" d="M12161 17355l-49 205 465 -64c-34,-186 -66,-233 -295,-165l-121 24z"/>
    <path class="fil11" d="M25042 11356l223 -140c-104,-85 -49,-40 -250,-95 -30,271 -67,195 27,235z"/>
    <path class="fil11" d="M9957 2397c154,-36 158,-19 195,-157 -167,80 -147,-26 -195,157z"/>
    <path class="fil11" d="M4894 15119l91 25c100,-76 56,-32 105,-150 -99,37 -32,-5 -108,42 -90,56 -55,44 -88,83z"/>
    <path class="fil11" d="M9643 2553c153,-13 119,24 157,-117 -113,9 -153,-1 -157,117z"/>
    <path class="fil11" d="M10348 2201c112,-27 59,6 118,-78 -205,17 -71,-38 -118,78z"/>
   </g>
   <g>
    <path class="fil12" d="M16238 13938l439 216c6,4 16,12 21,16l323 226c46,19 43,12 90,27 223,71 102,59 406,67 -37,155 -34,105 -5,154 193,-24 388,-61 568,-11 287,38 976,-55 1316,-95l378 -64c10,-4 24,-11 32,-14 9,-3 22,-9 32,-15l-242 -11c263,11 359,-80 593,-109 453,-55 552,-160 848,-263l462 -239c396,-260 124,4 432,-314l502 -560c210,-401 -324,-645 -703,-677l65 317c-285,25 -596,-16 -881,0 -200,11 -456,137 -671,198l-2611 926c-118,48 -241,75 -351,119 -39,16 -103,50 -166,73 -446,170 -508,72 -877,33z"/>
    <path class="fil12" d="M8948 10452c-102,35 -249,59 -396,39 -53,119 13,64 -164,124 -57,19 -125,33 -183,50 -129,39 -248,78 -381,117l238 49c165,4 -22,12 100,-8 238,-39 866,-260 1207,-276 98,132 296,568 333,720 -152,-43 -42,-67 -263,-175 -148,-72 -220,-65 -410,-65 91,250 270,253 350,536 -352,-57 -342,-78 -756,-57l-216 117c214,97 416,81 519,208 -229,94 -409,173 -632,295 -110,59 -219,123 -296,171 -113,72 -174,149 -271,200 -75,85 -122,105 -147,228 21,61 39,95 67,143 67,-99 79,-112 185,-190l89 -63c186,-130 592,-473 815,-307 115,85 109,88 277,121 -128,52 -100,-39 -214,45l-209 140c186,90 1532,121 1935,194 383,68 1619,372 1856,269l14 -134 -143 -8c-273,-16 -1701,-257 -1840,-341l-62 -635c-8,-87 -24,-175 -30,-260 -3,-45 -4,-90 1,-134 11,-97 1,-44 24,-91 105,-131 137,-110 99,-348l-2 -15 -15 -38c-164,-64 -84,-45 -193,-187l-448 -428c210,-42 428,-33 570,-93l-3 -109c-250,-14 -502,61 -724,85 -121,-8 -248,-65 -377,-97 -59,112 169,181 -304,208z"/>
    <path class="fil12" d="M20495 11045l-10 238 65 44c101,70 35,-35 65,116 5,25 -4,120 -8,149 -12,89 -30,178 -47,269 -35,188 -71,384 -79,596 115,-46 63,14 123,-87 73,-7 744,66 859,37l68 -28c-159,-243 -233,-183 -493,-275 193,-87 833,114 1095,57 -238,-262 -625,-292 -759,-420l337 -116c36,-15 90,-25 129,-44 104,-50 47,-15 105,-71 -165,-71 -276,-72 -376,-199 162,-54 777,-225 871,-297 -444,-234 -1085,-131 -1405,201 -41,-124 497,-573 634,-669 174,-121 300,-48 563,-14 857,110 1930,525 2486,1003 183,146 455,487 514,747l24 32c60,37 86,20 54,26 -140,-347 -226,-551 -483,-819 -88,-166 -207,-215 -346,-321 -195,-148 -224,-114 -429,-236 -142,-70 -72,-14 -100,-106 -123,-13 -192,4 -274,-58l-267 -91c-211,-126 -682,-233 -932,-283 -109,-22 -1008,-168 -1013,-171l-218 -19c-128,2 -154,23 -238,-26l-225 1c-147,83 -126,-19 -98,226l475 18 -81 92c-46,44 -32,31 -91,69 -105,67 -95,42 -184,124 -57,52 -100,96 -161,154 -29,27 -52,49 -78,76l-72 75z"/>
   </g>
   <g>
    <path class="fil13" d="M17835 7824c5,10 9,23 11,31l27 177c2,230 -28,358 -168,456 -25,160 -55,35 9,192 64,157 16,38 93,106l-44 871c-306,153 -613,153 -1020,151 69,159 16,330 18,521l563 15 202 0c64,225 72,575 -9,812 -48,140 -67,122 -203,168 -221,73 -413,96 -638,53l12 189c-8,188 -32,212 17,400 300,-163 944,-146 1164,-214 9,-3 18,-8 27,-11 9,-3 19,-8 28,-11 10,-3 20,-7 30,-10 138,-37 352,-38 618,-117 216,-64 291,-29 494,-70 442,-90 931,-272 1419,-250l10 -238c-265,20 -414,101 -682,13 -52,-198 -48,-373 35,-575 53,4 21,-21 36,39l65 -51c117,-66 552,-52 703,-66 -10,-106 11,-40 -47,-92 -165,30 -263,31 -392,-54 -65,-166 -63,-593 32,-566 223,-53 18,-97 302,-83 3,1 176,19 176,19 105,21 70,5 139,56 10,-75 -12,-37 63,-15 -66,-137 -54,-89 -37,-271 154,86 85,112 296,180 -33,-340 -23,-660 -39,-1024l35 -315 -309 -30c-100,-61 -139,-63 -163,-165 -44,70 1,27 -66,69 -27,-183 40,-88 -117,-106 -237,-28 -468,-75 -632,-49l-225 1347c-40,455 -126,972 -92,1426 -196,52 -418,100 -610,70 -44,31 12,9 -88,42 -28,9 -390,80 -563,63l-3 -738c-14,-432 71,-1823 213,-2129l35 -322 -7 -142c-147,285 -519,-40 -609,180 -6,-8 -10,-21 -13,-26l-44 -71c-62,-72 -103,-63 -144,-87 85,156 84,41 92,252z"/>
    <path class="fil13" d="M10097 3532c-29,177 71,237 278,190 232,-54 45,-112 443,-112l0 128 47 -41c8,-7 57,-51 64,-58 251,-244 217,-152 265,-337 26,-28 68,-94 95,-123 85,-93 -2,-7 106,-88 82,-61 110,-97 183,-156l-166 47c-6,-11 -22,12 -34,17 -49,-86 -29,-117 -64,-142 -180,124 -413,223 -634,342 -202,108 -432,253 -583,333z"/>
    <path class="fil13" d="M12161 17355l121 -24c-41,-190 -74,-186 -167,-292 -45,77 26,341 -472,372 -341,21 -490,17 -789,-72 95,251 374,257 669,266 623,19 538,-137 638,-250z"/>
    <path class="fil13" d="M11288 2025c138,-2 326,-10 460,5 116,13 301,65 421,71 -64,50 -19,-7 -45,95l181 -191 -1017 -391 0 411z"/>
    <path class="fil13" d="M17355 17465c0,-101 -24,-75 79,-75l-204 -109c29,123 15,86 125,184z"/>
   </g>
   <g>
    <path class="fil14" d="M13963 3303c777,758 235,1632 -113,1692 -143,168 -538,111 -719,18 -202,-102 -304,-243 -393,-449l-211 -110c-11,138 4,124 -38,232 -3,7 -105,170 -108,174 -115,115 -120,25 -214,172 -5,7 -8,19 -13,26 -104,160 -88,51 -222,213 -144,174 -268,341 -432,453 -7,499 -94,404 -554,550 -299,96 -589,229 -859,301l124 -29c151,15 1372,-316 1684,-371 582,-102 1181,-218 1797,-308 1223,-179 2628,-346 3867,-384 38,-117 -3,-90 -91,-181 -38,-39 -59,-63 -98,-102l-1187 -1083c-19,-18 -70,-75 -95,-98 -39,-37 -46,-40 -81,-73 -42,-40 -2,1 -58,-58l-217 -224c-36,-32 -50,-45 -80,-73l-496 -404c-209,-230 -339,-277 -396,-463 -22,-42 -4,-29 -56,-67 -79,-57 4,-22 -125,-60l25 152c-127,69 -104,23 -162,183 -59,161 -53,119 -204,265 -206,199 -22,52 -275,106z"/>
    <path class="fil14" d="M11814 10552c102,147 147,966 131,1198 -266,-4 -585,-65 -819,-107 -149,-27 -215,-62 -386,-76 -75,-5 -148,-5 -223,-20l-172 -73c-23,47 -13,-6 -24,91 -5,44 -4,89 -1,134 6,85 22,173 30,260l102 420c206,83 108,-100 170,163 124,-156 343,-26 483,0l966 123 10 -286c180,28 146,35 342,118l44 235c-56,-738 -124,-1486 -192,-2311 -46,-571 -187,-1922 -118,-2426l2082 -352 46 2561 83 95c8,8 21,20 31,30 12,-155 38,-143 42,-317 -19,308 28,135 182,214 6,118 9,231 21,348l115 991c0,-224 -61,-485 -4,-692 45,-277 5,-2313 10,-2918 1,-157 3,-313 6,-470 10,-440 -5,-353 120,-350 -154,-96 -621,34 -793,69 -261,53 -571,66 -828,119l-782 144c-280,48 -522,73 -771,128 -21,791 135,2572 97,2957z"/>
    <path class="fil14" d="M16705 11966l5 256 -764 -98c-71,-21 -72,-23 -108,-47l-906 -131c-81,-29 -26,-1 -72,-37l-55 0c-25,151 -14,652 94,676l82 15c156,18 48,43 217,72 242,43 342,-61 594,62 174,85 619,131 791,134l51 199c7,-11 16,-25 20,-33l52 -81c2,-12 9,-14 13,-21l41 -683c8,-83 1724,-379 1954,-425l1730 -353c122,-36 102,-9 106,-144l-65 -44c-488,-22 -977,160 -1419,250 -203,41 -278,6 -494,70 -266,79 -480,80 -618,117 -10,3 -20,7 -30,10 -9,3 -19,8 -28,11 -9,3 -18,8 -27,11 -220,68 -864,51 -1164,214z"/>
    <path class="fil14" d="M12540 10542c-41,101 -54,200 -30,340 76,59 91,100 226,113 108,-81 87,-41 132,-176 61,-228 -38,-335 -260,-311l-68 34z"/>
   </g>
   <g>
    <path class="fil15" d="M14832 2211c121,155 291,254 431,399l1201 1147c205,203 1512,1438 1576,1573 157,75 245,203 366,323 86,86 272,231 309,356 301,67 642,185 976,280 559,158 2801,783 3077,780l-35 -130c-110,-144 -308,-293 -431,-406 -143,-132 -283,-263 -432,-391 -237,-205 -703,-593 -870,-800l-1753 -1536c-180,-7 -92,3 -234,-132 -360,-342 -203,100 -729,-171l-406 -182c-176,-55 -127,2 -282,-109 -5,-4 -19,-6 -22,-18l-528 -23 -49 -295c-231,-10 -135,3 -286,-70 -243,-116 -98,36 -392,-153 -164,-106 -215,-31 -403,-71 -99,-21 -57,-20 -88,-30l-520 -223c-260,-85 -127,-62 -223,-233l-235 -2c-24,61 48,32 -18,117z"/>
    <path class="fil15" d="M14103 1209c61,43 24,5 73,61 81,92 158,261 168,383 231,31 846,333 1134,436 388,139 786,275 1171,431 306,123 2176,829 2357,848l-41 -137c-424,-541 -529,-339 -922,-543l-821 -354c-234,-92 -462,-178 -666,-290l-2215 -855c-124,-28 -77,-27 -196,-57 -62,57 -18,-25 -42,77z"/>
    <path class="fil15" d="M12868 10819c-45,135 -24,95 -132,176 -135,-13 -150,-54 -226,-113 -12,264 -10,238 5,518 10,189 27,302 52,489 26,195 75,863 51,1035l204 -8 122 -7c-132,-102 -76,-289 -76,-609l-36 -1103c0,-6 -2,-18 -3,-24 -13,-118 -47,-19 -7,-100 24,-49 386,-169 149,-486l-42 73c-94,197 20,57 -61,159z"/>
    <path class="fil15" d="M12540 10542l68 -34c59,-54 1,-24 89,-57 45,-16 78,-17 126,-20l-165 -121c-155,-40 -36,-6 -47,8 136,-361 -38,100 -39,-442l-38 -1750 -219 12c7,202 3,401 5,602 3,247 57,325 68,545 18,343 -28,616 42,896 35,140 0,126 -3,280 7,5 19,3 22,14 3,11 18,12 22,15l69 52z"/>
   </g>
   <g>
    <path class="fil16" d="M21384 7914c-48,142 -36,172 -148,247 -139,93 -175,72 -365,49l309 30 -35 315 257 -19c178,-80 199,-130 338,-259 35,57 135,329 147,390 92,35 166,67 182,178 162,3 276,25 390,127l-250 76c96,68 42,-4 17,99 -30,126 3,7 -57,102l87 231c-456,36 -594,85 -473,550 -119,76 -72,25 -162,119 -107,111 28,99 -155,106 5,3 904,149 1013,171 250,50 721,157 932,283 71,-250 154,-201 124,-563l132 0 28 -74 118 1c47,-90 196,-295 276,-324l31 153c137,-2 136,34 128,158 73,-42 -33,-28 77,-26 21,0 103,22 121,28 -70,169 -111,123 -175,363l42 44c0,1 55,64 55,65 -8,7 -20,7 -24,22l-87 85c126,-24 124,-3 160,11 -2,16 101,-29 -39,55 -39,23 -109,42 -135,63 -97,80 -32,61 -73,124 -59,90 -4,60 -118,70 205,122 234,88 429,236 139,106 258,155 346,321 93,-21 53,-3 115,-49 75,-54 55,-50 100,-116 -94,-40 -57,36 -27,-235 201,55 146,10 250,95 110,-42 -3,10 115,-51 59,-30 94,-53 129,-78l-11 -391c87,-46 118,-66 196,-118 0,-529 60,-265 156,-514 71,-185 -16,-113 -6,-234 6,-64 4,-12 39,-78 32,-63 26,81 48,-149 18,-189 -3,-504 0,-710 4,-356 -9,-350 -355,-350l0 -353c-133,-48 -244,-150 -509,-156 0,-220 9,-538 -299,-679 -130,-59 -316,-56 -418,-42 -146,21 -258,37 -324,173 -193,323 1,148 -192,499 -41,73 4,-37 -46,88 229,176 478,210 453,627 -22,370 -217,508 -535,537 86,-48 89,-55 229,-63 -221,-182 -39,27 -180,-255 -76,-153 -61,24 -167,-262 -82,-220 37,-42 -157,-153 -7,-319 27,-232 -142,-378 -93,-81 -4,28 -79,-74 -52,-71 -17,-13 -34,-86 -57,-237 28,19 -112,-244l-29 -65c-2,-4 -6,-16 -11,-23 -59,91 -21,79 -140,118 31,-118 115,-101 -203,-266 -85,-44 -17,-29 -155,-47l130 -37 -1078 -276 -153 46c-19,227 44,531 -41,742z"/>
    <path class="fil16" d="M16556 2044c204,112 432,198 666,290l821 354c393,204 498,2 922,543l173 183c-52,108 -67,76 -101,196 113,55 149,89 210,196l1753 1536c-39,-209 -95,-87 -72,-235 1,-5 5,-16 6,-21 29,-153 28,-230 -117,-324 -125,-80 -63,38 -114,-77 -63,-142 28,-65 57,-85 128,-91 12,85 129,-89l-42 -43c-17,-14 -48,-37 -70,-51 -7,-4 -18,-9 -26,-13l-111 -50 -74 -470c34,-124 41,-90 -100,-172 -369,-217 -521,-41 -762,16 70,-299 107,-665 -67,-873 -248,-297 -370,-263 -872,-263 103,-408 -223,-580 -454,-534 -206,41 -83,86 -290,104 0,-778 -810,-778 -1146,-481 -146,130 -191,228 -319,363z"/>
    <path class="fil16" d="M9421 9396c-143,131 -144,316 -62,529 79,202 243,324 270,416 222,-24 474,-99 724,-85l-25 -69 -180 -1037 82 0c-264,-259 -309,-24 -308,-803l-60 -287c-65,-63 -10,43 -82,-115 -24,105 -42,157 -53,218 -12,71 -12,145 -27,214 -46,218 -38,-34 -41,158 -1,76 109,321 18,556l-73 268c-92,40 -87,22 -183,37z"/>
    <path class="fil16" d="M5740 10987c163,-23 124,-57 266,-88 -38,-234 -15,-103 40,-282 -267,-140 -476,-111 -493,-546 -8,-184 16,-302 117,-411 56,-59 80,-73 166,-108 167,-68 122,8 147,-57 5,-13 21,-8 30,-14 -95,-42 -116,-49 -195,-128l-134 -146c-5,247 12,99 76,268l-144 130c-184,197 -103,295 -127,504 -12,101 -10,27 -48,39l-32 0c-1,583 -98,293 -118,550 -14,181 83,116 8,239l441 50z"/>
    <path class="fil16" d="M21114 18056c78,497 156,203 156,1096l78 0c3,-133 387,-942 126,-1419 -32,-59 -16,-32 -51,-69l61 384c-337,-15 -221,-59 -235,-80l-31 188c-6,-13 -21,-28 -27,-34l-77 -66z"/>
    <path class="fil16" d="M22993 17703c118,291 302,374 340,778 13,142 41,196 51,318 227,-260 157,-597 157,-1018 -25,-20 -93,-33 -110,-39l-130 6c-11,-5 -43,-21 -53,-26 -171,-74 -139,4 -255,-19z"/>
    <path class="fil16" d="M24128 17417c31,153 165,329 274,795 127,-93 77,-11 78,-470 1,-242 37,-332 -93,-470l-1 173c-103,-96 -146,-69 -219,-181 104,140 -18,135 -39,153z"/>
   </g>
   <g>
    <path class="fil17" d="M16686 6043l-124 108c-8,5 -18,10 -27,14l-380 83c-77,20 -74,17 -165,28 -223,28 -459,23 -630,77l-87 29c-167,43 -333,19 -565,103 -250,91 -1669,259 -1814,299l-235 76c-9,3 -19,8 -28,11 -52,16 -25,10 -93,24 -142,30 -230,30 -387,46 -322,31 -556,162 -1406,209 -1,0 -80,4 -87,4l-47 -3c-40,153 61,372 40,687 -73,12 -765,198 -789,222l60 287 116 79c210,-177 729,-162 1028,-94 69,231 103,472 32,726 -173,36 -716,118 -868,92l-82 0 180 1037c76,69 44,-5 98,153 83,-167 617,-65 720,202l18 673c-38,99 -54,161 7,226 108,116 195,3 195,3 95,-32 -77,-9 88,-32 108,-15 80,5 203,85 56,36 20,30 105,53 75,-185 38,49 67,-189 51,-420 -64,-560 -15,-809 38,-385 -118,-2166 -97,-2957 249,-55 491,-80 771,-128l782 -144c257,-53 567,-66 828,-119 172,-35 639,-165 793,-69 190,56 -41,-39 57,19 52,31 49,32 80,58 -10,1380 -47,2687 -11,4071 69,107 65,154 68,292l25 -140c166,6 410,28 547,-11l314 -151c-105,-87 -36,39 -66,-146 -11,-68 -16,-190 -23,-253 -18,-169 -8,-320 -3,-491 347,-185 450,-85 831,-76l39 -433 -294 -27c-101,-28 -74,-23 -115,-45 -270,-44 -577,-71 -626,-298 -35,-63 -135,-799 134,-906l659 -43c-28,-43 -13,-62 -45,-94l-236 -103c-65,-47 -68,16 -76,-152l24 -450c24,-201 54,-211 234,-251l618 -74 94 -223c12,-136 30,-292 100,-376 -7,-143 68,-499 146,-634l43 -58 10 -135 -733 38z"/>
    <path class="fil17" d="M7824 10782c133,-39 252,-78 381,-117 58,-17 126,-31 183,-50 177,-60 111,-5 164,-124 -171,-217 -283,-547 -471,-700 -233,-188 -626,-245 -1012,-195l-127 238c796,62 483,455 402,733 312,8 330,-54 480,215z"/>
    <path class="fil17" d="M7211 8462c62,81 96,127 162,199 33,35 49,46 77,79 78,93 28,27 54,86 206,95 325,334 574,343 127,-119 150,-287 153,-475 25,-278 -89,-379 -28,-561 -212,31 -187,224 -516,224 -198,0 -471,-129 -523,-223 -24,179 -48,214 47,328z"/>
    <path class="fil17" d="M8544 8688c-109,347 -191,744 -5,1115l87 125c28,-32 23,-24 54,-76l138 -294c64,-132 140,-261 195,-393 -13,-158 -62,-104 -100,-286 -29,-136 9,-244 16,-367 -137,51 -261,78 -385,176z"/>
    <path class="fil17" d="M9205 9316c-156,403 -370,604 -257,1136 473,-27 245,-96 304,-208 129,32 256,89 377,97 -27,-92 -191,-214 -270,-416 -82,-213 -81,-398 62,-529 66,-189 11,-87 -12,-131 -191,-9 -92,-26 -204,51z"/>
    <path class="fil17" d="M21248 10236l218 19c183,-7 48,5 155,-106 90,-94 43,-43 162,-119 -121,-465 17,-514 473,-550l-87 -231c-322,12 -527,137 -662,314 -104,136 -272,445 -259,673z"/>
    <path class="fil17" d="M10827 17224c217,24 438,18 656,12 280,-8 352,21 547,-81 -69,-285 -336,-273 -665,-268 -298,3 -524,21 -538,337z"/>
    <path class="fil17" d="M21402 8536c-53,288 -119,499 -61,803 148,-63 206,-181 300,-310 69,-93 162,-258 246,-362 -12,-61 -112,-333 -147,-390 -139,129 -160,179 -338,259z"/>
    <path class="fil17" d="M7121 9342l512 25c8,-206 -157,-260 -248,-419 -64,-25 6,18 -94,-50 -27,-19 -61,-48 -87,-70 -62,-52 -74,-73 -143,-111l-352 217c169,97 181,4 323,260 65,116 5,44 89,148z"/>
    <path class="fil17" d="M5501 12016c144,-54 134,-109 279,-177l-12 -134c-94,-97 -99,-136 -275,-156 -373,9 -173,41 -403,120 8,7 20,15 25,19l102 63c74,45 62,31 118,79 57,49 99,117 166,186z"/>
    <path class="fil17" d="M5952 11637c147,-22 229,-93 333,-177 17,-217 -153,-85 -2,-417 -152,-22 -136,-47 -267,-12 -176,211 -102,355 -64,606z"/>
    <path class="fil17" d="M23411 10709l267 91c186,0 11,-593 -11,-654l-132 0c30,362 -53,313 -124,563z"/>
    <path class="fil17" d="M20862 9685l-18 182 -59 344 225 -1c46,-122 62,-206 43,-338 -8,-55 -23,-111 -55,-156 -58,-83 10,-29 -73,-46 -75,-22 -53,-60 -63,15z"/>
    <path class="fil17" d="M23813 10073c30,131 13,131 119,208 57,-43 29,-3 72,-64 28,-40 32,-65 49,-104 44,-104 49,-106 67,-211l-31 -153c-80,29 -229,234 -276,324z"/>
    <path class="fil17" d="M5476 11271l174 26c54,-56 22,-11 41,-94l-14 -182 -345 -23 24 218 120 55z"/>
    <path class="fil17" d="M22209 9048l250 -76c-114,-102 -228,-124 -390,-127 -98,126 -113,91 -205,264l345 -61z"/>
    <path class="fil17" d="M24248 10060c-53,161 -108,220 -145,422l168 -57c64,-240 105,-194 175,-363 -18,-6 -100,-28 -121,-28 -110,-2 -4,-16 -77,26z"/>
    <path class="fil17" d="M23952 10858c28,92 -42,36 100,106 114,-10 59,20 118,-70 41,-63 -24,-44 73,-124 26,-21 96,-40 135,-63 140,-84 37,-39 39,-55 -36,-14 -34,-35 -160,-11 -159,40 -221,134 -305,217z"/>
    <path class="fil17" d="M10818 1849l0 78 156 0 0 -118c-78,39 -43,28 -156,40z"/>
    <path class="fil17" d="M8744 17468l116 7 -2 -166c-70,83 -73,84 -114,159z"/>
    <path class="fil17" d="M10348 2201c-96,25 -53,-18 -78,78l78 -78z"/>
   </g>
   <g>
    <path class="fil18" d="M4633 15002l0 0zm1652 -3542c-104,84 -186,155 -333,177 -66,81 -41,92 -184,68l12 134c-145,68 -135,123 -279,177l-115 99c-86,67 17,15 -88,58 -191,-93 -327,-161 -559,-228 -373,-106 -565,-7 -725,-75 -71,28 -47,22 -86,78 215,103 292,68 431,274 -228,-53 -197,-78 -509,-78l0 274c199,5 231,35 313,157l-313 0 0 587c89,-21 90,-30 195,-39 -50,96 -72,179 -117,274 217,-18 175,-100 391,-118 -10,120 -37,189 -78,274 155,-12 184,-39 392,-39 -49,92 -68,102 -79,235 49,22 -8,14 63,12 9,0 81,-11 94,-12 -41,152 -120,130 -242,228 -302,242 -384,614 -384,1025 165,-190 53,-248 234,-313 -176,367 -227,982 -26,1396 60,124 -1,92 144,130 0,-355 -52,-513 72,-945l124 -268c0,270 -62,165 0,431l111 -164c48,-63 95,-103 150,-150 33,-39 -2,-27 88,-83 76,-47 9,-5 108,-42 -49,118 -5,74 -105,150 -210,307 -274,575 -274,1071 93,-33 31,4 89,-67l263 -363c0,676 -222,41 79,1331 20,-30 18,-20 41,-76 101,-239 32,-389 233,-746 124,-220 322,-429 548,-548 -54,201 -275,353 -311,746 -17,180 -54,328 -33,495 15,112 59,356 70,481l78 0c0,-638 412,-1231 822,-1448 -62,267 -121,300 -151,514 -44,310 -44,335 -12,628l136 920c45,186 -13,166 144,208 0,-632 297,-1475 783,-1800 -44,164 -281,379 -276,1096 2,213 38,263 41,430l79 0c120,-514 509,-834 900,-1096 -13,162 -88,239 -143,405 -147,442 -129,1087 26,1435l156 33c0,-251 91,-539 162,-732 37,-99 76,-194 134,-297 69,-121 114,-184 175,-296 41,-75 44,-76 114,-159l2 166c-50,198 -137,313 -156,543 -30,376 61,382 117,625l79 0c0,-297 151,-743 313,-862 -23,275 -102,711 38,980l29 50c52,82 13,24 50,66 5,-216 123,-508 196,-665 145,-310 290,-404 341,-509 78,-126 88,-89 173,-191 226,-273 262,-689 1159,-1308 1187,-819 2855,-1159 4296,-1333 335,-40 2496,-184 2585,-238 -180,-50 -375,-13 -568,11 -29,-49 -32,1 5,-154 -304,-8 -183,4 -406,-67 -47,-15 -44,-8 -90,-27l-323 -226c-5,-4 -15,-12 -21,-16l-439 -216 -1740 -351c-154,163 -249,309 -423,447 -391,310 -1170,712 -1624,867 -903,307 -1671,511 -2731,634 -1307,153 -3086,-57 -4150,-809 -274,-193 -741,-701 -624,-912 -84,-694 -78,-866 316,-1393 155,-208 718,-692 976,-771l166 -124c241,-127 963,-449 1158,-481 137,-100 395,-120 500,-214l-238 -49c-279,66 -546,181 -800,303 -214,102 -548,311 -739,375z"/>
    <path class="fil18" d="M25509 11087c-35,25 -70,48 -129,78 -118,61 -5,9 -115,51l-223 140c-45,66 -25,62 -100,116 -62,46 -22,28 -115,49 257,268 343,472 483,819 32,-6 6,11 -54,-26 73,448 123,571 82,1083 83,-116 89,-227 84,-392 -3,-135 -19,-246 -27,-377 107,605 224,963 -159,1644 -830,1479 -2531,1974 -4218,2171 -1325,155 -2712,72 -4021,216 -856,95 -2110,373 -2645,1097l-203 356 12 -180c-140,196 -61,615 -5,833 37,149 116,261 198,347l142 45c-98,-435 -37,-547 -37,-984l78 0c28,121 49,124 87,265 21,79 48,191 69,283l79 0c17,-208 166,-480 39,-744 273,99 185,710 391,861 27,-325 147,-713 0,-1017 291,77 485,808 509,1096l109 -322c53,-254 86,-527 6,-772 -40,-122 -103,-213 -115,-355 222,59 470,429 575,639 189,376 208,499 208,1045l202 -347c42,-114 109,-304 136,-451 85,-463 -67,-657 -220,-886 234,55 369,277 470,469 89,170 215,511 234,745l79 0c0,-436 126,-818 -40,-1217 -110,-98 -96,-61 -125,-184l204 109c337,150 502,333 697,633 188,289 242,663 242,1129 251,-185 368,-1135 0,-1684 155,42 86,17 159,154 40,75 80,136 114,200 126,242 44,317 197,429 175,-365 14,-774 0,-939 170,45 338,379 404,536 120,287 124,519 262,677 0,-195 51,-316 40,-784 -9,-404 -150,-450 -197,-625 217,115 186,99 364,262 297,271 350,399 483,809 97,296 33,394 171,495 22,-265 301,-845 -39,-1488 122,33 138,80 235,156 365,287 360,446 506,661 77,114 -49,0 42,45l77 66c6,6 21,21 27,34l31 -188c14,21 -102,65 235,80l-61 -384c-31,-166 -119,-253 -192,-392 270,73 531,574 548,783 116,-85 69,9 82,-192 4,-64 1,-249 -5,-315 -14,-183 -79,-311 -116,-471 214,18 511,168 678,261 93,52 218,120 296,174l279 191c116,23 84,-55 255,19 10,5 42,21 53,26l130 -6c65,-255 -226,-339 -282,-548 242,57 444,313 666,431 -37,-158 -53,-225 -116,-354 -75,-154 -115,-188 -197,-312 230,5 313,113 496,327 109,126 -4,61 130,131 21,-18 143,-13 39,-153 73,112 116,85 219,181l1 -173c20,-267 -263,-457 -377,-626 463,108 659,376 857,670 82,121 -5,67 122,113 0,-753 -236,-731 -313,-1018 421,223 423,525 516,432 101,-101 -153,-573 -242,-706 427,114 657,950 705,1018 135,-581 110,-987 -196,-1566 162,43 263,239 364,419 16,28 25,49 41,76 49,81 15,35 65,92 0,-276 6,-433 -42,-663 -20,-100 -39,-190 -76,-276 -46,-108 -86,-141 -117,-274 139,73 124,122 235,196 0,-163 15,-429 -9,-579 -53,-324 -142,-166 -148,-478l151 124c6,-306 49,-710 -36,-944 -44,-119 -124,-190 -148,-321 -35,-184 -50,-276 -84,-425l266 242 8 -790c-207,0 -59,-1 -118,-40 161,-42 118,-29 118,-234 -22,0 -64,0 -76,-3 -69,-20 -43,-13 -81,-37 225,-18 157,-99 157,-352 -106,9 -107,18 -196,39 149,-222 196,-9 196,-352 -210,0 -286,2 -420,78z"/>
    <path class="fil18" d="M7580 12725l-102 155c-298,915 1609,844 2048,832 309,-9 773,-106 1018,-73l1242 -277c135,-120 385,-129 595,-285 -237,103 -1473,-201 -1856,-269 -403,-73 -1749,-104 -1935,-194l209 -140c114,-84 86,7 214,-45 -168,-33 -162,-36 -277,-121 -223,-166 -629,177 -815,307l-89 63c-106,78 -118,91 -185,190 -28,-48 -46,-82 -67,-143z"/>
   </g>
   <g>
    <path class="fil19" d="M4014 11870c160,68 352,-31 725,75 232,67 368,135 559,228 105,-43 2,9 88,-58l115 -99c-67,-69 -109,-137 -166,-186 -56,-48 -44,-34 -118,-79l-102 -63c-5,-4 -17,-12 -25,-19 230,-79 30,-111 403,-120l-195 -27c1,-7 38,-152 39,-154 62,-110 1,-70 139,-97l-120 -55 -24 -218 345 23 14 182 49 -216 -441 -50c75,-123 -22,-58 -8,-239 20,-257 117,33 118,-550l32 0c38,-12 36,62 48,-39 24,-209 -57,-307 127,-504l144 -130c-64,-169 -81,-21 -76,-268l134 146c79,79 100,86 195,128 -9,6 -25,1 -30,14 -25,65 20,-11 -147,57 -86,35 -110,49 -166,108 -101,109 -125,227 -117,411 17,435 226,406 493,546 -55,179 -78,48 -40,282l10 132c131,-35 115,-10 267,12 -151,332 19,200 2,417 191,-64 525,-273 739,-375 254,-122 521,-237 800,-303 -150,-269 -168,-207 -480,-215 81,-278 394,-671 -402,-733l127 -238 9 -231 43 -23c-84,-104 -24,-32 -89,-148 -142,-256 -154,-163 -323,-260l352 -217c16,-69 15,-94 50,-161 44,-83 18,-62 100,-94 -95,-114 -71,-149 -47,-328 52,94 325,223 523,223 329,0 304,-193 516,-224 -61,182 53,283 28,561l52 -142c6,-10 15,-22 20,-31 5,-8 13,-22 22,-31 147,194 183,-3 219,198 124,-98 248,-125 385,-176 -7,123 -45,231 -16,367 38,182 87,128 100,286 78,-21 45,-31 116,13 148,93 72,36 76,138 112,-77 13,-60 204,-51 23,44 78,-58 12,131 96,-15 91,3 183,-37l73 -268c91,-235 -19,-480 -18,-556 3,-192 -5,60 41,-158 15,-69 15,-143 27,-214 11,-61 29,-113 53,-218 -49,-193 -113,-117 -157,-353 -33,-170 -19,-274 -8,-441l-163 -21 -64 -211 -913 186 -220 5c-58,-201 -226,-165 -18,-406l633 -695c57,-55 -16,25 57,-59 5,-6 12,-16 17,-22l774 -913c176,-197 214,-324 402,-387l-23 -196 18 -509c-335,-27 -316,-208 -703,-75 -260,89 -290,54 -374,292 -74,210 -69,241 -21,449 -214,-18 -411,-256 -704,1 -82,72 -76,90 -79,234 -250,-21 20,-25 -445,-181 -419,-141 -821,-85 -1127,252 -87,96 -135,222 -204,345 -119,216 -106,121 -104,444 4,775 133,420 236,862 -520,12 -395,486 -392,627 -162,-79 -359,-44 -523,24 -323,135 -485,317 -530,684 -31,255 -7,390 75,544l-186 95c-469,225 -292,466 -284,806 -118,9 -129,26 -196,77 -305,234 -160,483 -156,666 -139,3 -206,27 -302,90 -146,95 -17,11 -104,92 -102,96 -10,57 -142,92 0,645 -136,948 355,1171 107,49 20,39 193,43 -58,217 -111,33 -118,313l-266 0z"/>
    <path class="fil19" d="M21000 5342c167,207 633,595 870,800 149,128 289,259 432,391 123,113 321,262 431,406l211 195 -109 293 -179 -25 -130 37c138,18 70,3 155,47 318,165 234,148 203,266 119,-39 81,-27 140,-118 5,7 9,19 11,23l29 65c140,263 55,7 112,244 17,73 -18,15 34,86 75,102 -14,-7 79,74 169,146 135,59 142,378 194,111 75,-67 157,153 106,286 91,109 167,262 141,282 -41,73 180,255 -140,8 -143,15 -229,63 318,-29 513,-167 535,-537 25,-417 -224,-451 -453,-627 50,-125 5,-15 46,-88 193,-351 -1,-176 192,-499 -87,19 -75,6 -133,39 -91,-171 30,-97 -157,-118 45,-168 668,-571 290,-1307 -82,-159 -40,-89 -158,-194 -214,-191 -236,-143 -601,-143 0,-243 56,-415 -190,-554 -94,-53 -109,-33 -241,-33 37,-157 236,-599 -248,-809 -148,-64 -431,-90 -642,-41 -28,6 -174,75 -211,101 -83,59 -101,102 -191,162l-131 -260c-88,-101 -330,-224 -520,-121 -5,3 -56,37 -74,47 -103,56 -17,28 -136,60l0 -392c-30,-24 -95,-31 -117,-39l74 470 111 50c8,4 19,9 26,13 22,14 53,37 70,51l42 43c-117,174 -1,-2 -129,89 -29,20 -120,-57 -57,85 51,115 -11,-3 114,77 145,94 146,171 117,324 -1,5 -5,16 -6,21 -23,148 33,26 72,235z"/>
   </g>
   <g>
    <path class="fil20" d="M12282 17331c229,-68 261,-21 295,165l-465 64 49 -205c-100,113 -15,269 -638,250 -295,-9 -574,-15 -669,-266 299,89 448,93 789,72 498,-31 427,-295 472,-372 93,106 126,102 167,292zm-1455 -107c14,-316 240,-334 538,-337 329,-5 596,-17 665,268 -195,102 -267,73 -547,81 -218,6 -439,12 -656,-12zm8659 -1606l9 -90c108,100 176,124 158,330 -299,225 -708,209 -1110,104 73,-69 53,-82 300,-79 212,2 596,38 638,-215l-1065 -5c21,-417 783,-240 841,-214l229 169zm-4835 -105c188,42 329,38 544,11 304,-38 161,-161 311,-198 210,334 -373,384 -657,335 -154,-27 -156,-33 -198,-148zm-4 -109c-30,-199 123,-198 320,-200 204,-3 297,-2 392,122 -152,93 -474,124 -712,78zm8725 -1053c135,-126 206,-27 435,-77 168,-36 138,-98 153,-236 79,66 74,82 108,181 -128,260 -405,271 -696,132zm-3534 94c-10,6 -23,12 -32,15 -8,3 -22,10 -32,14l-378 64c-340,40 -1029,133 -1316,95 -89,54 -2250,198 -2585,238 -1441,174 -3109,514 -4296,1333 -897,619 -933,1035 -1159,1308 -85,102 -95,65 -173,191 166,38 123,101 84,223 -39,122 -71,221 -70,364 -14,207 16,432 35,588 643,18 48,-77 980,-75l2847 -14c10,-3 20,-7 29,-10l178 -130c29,25 62,70 95,92 88,58 -13,58 111,24 -56,-218 -135,-637 5,-833 -42,-437 494,-864 826,-1030 1739,-872 5999,-356 8208,-1265 450,-185 868,-437 1184,-698 258,-212 724,-727 813,-1100l-45 -203c-94,31 -123,60 -160,148 -109,-193 78,-192 -248,-96 -141,41 -382,18 -529,9 -148,-9 -90,-30 -200,51 -78,-136 11,-112 -200,-129l49 42c154,162 98,220 68,313 -198,19 -171,-77 -395,-72 -234,6 -184,66 -187,278 -353,0 -659,36 -718,-298 193,63 471,54 718,25l273 -40c121,-35 149,-84 53,-182 -53,99 -259,107 -368,114 -187,11 -426,-9 -575,35 -12,-18 -106,-163 -63,-55l4 -156 -108 -30c31,-60 35,-33 30,-116 -7,-125 28,-5 -38,-82 -189,148 -305,270 -558,418 -194,113 -416,204 -642,293 -302,119 -1202,396 -1515,339z"/>
    <path class="fil20" d="M8086 14435c117,31 142,50 181,175 -74,131 11,-14 -93,94 -54,55 -35,47 -71,89 -69,82 -109,93 -230,111 -354,50 -467,16 -576,-136 195,13 390,5 571,-33 49,-11 141,-45 179,-79 169,-154 41,-189 41,-189 -396,103 -374,137 -860,161 -22,-213 101,-269 302,-290 407,-42 366,46 556,97zm-3140 -621c78,110 120,252 222,380 75,95 188,209 286,299 180,164 496,333 762,451 1688,750 4610,522 6157,-175l110 -102c-240,-9 -183,15 -522,-223 -142,-99 -60,-75 -235,-78 18,-88 -10,-154 -95,-199 -176,-92 -688,219 -890,-189 301,3 526,-51 781,-70 77,81 89,160 232,154 122,-5 192,-44 192,-212l-284 3 -58 -216 -134 -13 55 82c4,7 25,33 34,43l-100 46c-180,64 -525,125 -675,72 5,-215 18,-85 202,-254l-442 26c-245,-33 -709,64 -1018,73 -439,12 -2346,83 -2048,-832l102 -155c25,-123 72,-143 147,-228 -15,-159 -3,-61 -211,-11 -282,69 -967,-137 -601,-184 19,-3 81,-5 102,-5 276,-1 374,37 551,-114 -67,-150 3,-86 -156,-169 -216,-113 -702,13 -823,-69 -2,-1 -11,-8 -13,-9 -197,-153 33,127 -47,-107l-72 -97c-45,-73 14,-22 -24,-125l-195 43c-258,79 -821,563 -976,771 -394,527 -400,699 -316,1393z"/>
    <path class="fil20" d="M9735 7095l-120 56c-11,167 -25,271 8,441 44,236 108,160 157,353 72,158 17,52 82,115 24,-24 716,-210 789,-222 21,-315 -80,-534 -40,-687l47 3c7,0 86,-4 87,-4 850,-47 1084,-178 1406,-209 157,-16 245,-16 387,-46 68,-14 41,-8 93,-24 9,-3 19,-8 28,-11l235 -76c145,-40 1564,-208 1814,-299 232,-84 398,-60 565,-103l87 -29c171,-54 407,-49 630,-77 91,-11 88,-8 165,-28l380 -83c9,-4 19,-9 27,-14l124 -108c-2227,191 -3251,354 -5316,706l-1635 346z"/>
    <path class="fil20" d="M15714 9504c332,163 587,56 1010,91 50,-124 7,-22 50,-100 5,-9 32,-49 47,-79 116,-215 42,-563 138,-678 148,-105 450,-61 664,-56 -11,-10 -29,-35 -37,-24l-146 -60c-171,-37 -388,31 -518,-71l-460 -66c32,32 17,51 45,94l-659 43c-269,107 -169,843 -134,906z"/>
    <path class="fil20" d="M9922 8347c-1,779 44,544 308,803 152,26 695,-56 868,-92 71,-254 37,-495 -32,-726 -299,-68 -818,-83 -1028,94l-116 -79z"/>
    <path class="fil20" d="M16056 11283c59,-160 -4,-62 162,-85 1,0 216,11 238,12 122,5 296,33 334,-68l46 -689c190,-44 354,-6 488,-109l-563 -15c-334,114 -742,-130 -815,216l12 581c38,190 12,105 98,157z"/>
    <path class="fil20" d="M16226 8358c80,-81 -60,-35 149,-58 37,-4 154,4 198,5 104,2 271,-1 331,-19 36,-138 91,-146 94,-368 3,-211 -14,-267 28,-487l-618 74c-180,40 -210,50 -234,251l-24 450c8,168 11,105 76,152z"/>
    <path class="fil20" d="M10353 10256l3 109c-14,311 11,453 71,708l15 38c266,-36 105,-39 260,-70 122,-25 217,4 351,-26 2,-643 25,-423 93,-473 -103,-267 -637,-369 -720,-202 -54,-158 -22,-84 -98,-153l25 69z"/>
    <path class="fil20" d="M15838 12077c36,24 37,26 108,47l764 98 -5 -256c-49,-188 -25,-212 -17,-400 -333,-13 11,-142 -311,-107 2,6 11,14 11,16 0,5 2,28 -11,62 -117,15 -182,17 -256,22 -17,1 -116,9 -133,12l-208 63c-245,67 194,-26 -67,15l-472 9c-91,-14 -69,-13 -107,-30 6,78 -6,48 -23,103l1186 164c541,46 326,1 393,132 -179,148 -475,52 -852,50z"/>
    <path class="fil20" d="M23633 11383l-27 151c119,47 85,60 99,79 141,24 283,31 426,15 157,-17 215,-50 236,-188 -137,-203 -607,-201 -734,-57z"/>
    <path class="fil20" d="M24412 12432l-19 165c88,39 372,107 388,-99 1,-7 -2,-23 -4,-34 -115,-51 -214,-42 -365,-32z"/>
    <path class="fil20" d="M23097 11154c-87,227 313,257 325,12 -137,-94 -206,-83 -325,-12z"/>
   </g>
   <path class="fil21" d="M13506 9119c-300,40 -274,-206 -192,-474l180 -1c103,215 114,262 12,475zm-972 -993l38 1750c1,542 175,81 39,442 11,-14 -108,-48 47,-8l165 121c-48,3 -81,4 -126,20 -88,33 -30,3 -89,57 222,-24 321,83 260,311 81,-102 -33,38 61,-159l42 -73c237,317 -125,437 -149,486 -40,81 -6,-18 7,100 1,6 3,18 3,24l36 1103c0,320 -56,507 76,609l-122 7 5 23c147,22 705,116 815,149 244,72 8,88 345,100 368,13 264,74 424,77 78,-107 51,-325 51,-481 -38,-659 -232,-1868 -177,-2580l-46 -2561 -13 196 -1692 287z"/>
   <path class="fil22" d="M12305 2005l-181 191c-95,119 -191,217 -263,339 -77,133 -33,73 -132,182 -91,100 -80,106 -151,218 -73,59 -101,95 -183,156 -108,81 -21,-5 -106,88 -27,29 -69,95 -95,123 187,-48 255,-5 255,-5 5,2 15,6 20,8l151 54 -1352 1584c-58,76 -81,115 -134,177 -182,215 -140,107 -305,357l-556 730 1083 -1220c894,-1053 1769,-2014 2657,-3097 206,-250 568,-282 786,-17 61,45 77,73 156,124 94,95 237,230 323,306 65,59 249,271 301,294 129,38 46,3 125,60 52,38 34,25 56,67 224,61 86,97 279,93 51,-1 109,-73 293,35 122,72 298,262 395,352l662 663c345,244 277,218 487,457l1164 1006c-64,-135 -1371,-1370 -1576,-1573l-1201 -1147c-140,-145 -310,-244 -431,-399 -92,-60 -188,-171 -289,-251 -150,-121 -233,-116 -381,-204 -72,-81 -160,-144 -164,-252 -5,-140 67,-178 105,-295 24,-102 -20,-20 42,-77 119,30 72,29 196,57 -7,-7 -18,-27 -22,-20 -3,7 -17,-15 -22,-18 -152,-106 -411,-164 -564,-193 -421,-79 -618,-90 -1007,254 -49,43 -190,197 -201,260 -27,146 173,320 -80,479 -65,41 -59,43 -140,54z"/>
   <path class="fil23" d="M18312 10169l535 -3c130,-27 99,-1 111,-209l214 -1859 -347 -57 -300 -1c-142,306 -227,1697 -213,2129z"/>
   <path class="fil24" d="M18595 7718c-26,102 4,42 145,71 97,21 112,4 175,46l522 74c-20,392 -171,750 -145,1147l4 397 95 -228c89,74 216,109 196,190 40,-222 -12,-19 81,-109l225 -1347 27 -238 -615 -221c-177,-63 -458,-191 -642,-191l-68 409z"/>
   <path class="fil25" d="M8273 18793l-156 -33c27,173 6,195 156,235l0 -202z"/>
  </g>
 </g>
</svg>
