<?xml version="1.0" encoding="UTF-8"?>
<!DOCTYPE svg PUBLIC "-//W3C//DTD SVG 1.1//EN" "http://www.w3.org/Graphics/SVG/1.1/DTD/svg11.dtd">
<!-- Creator: CorelDRAW X8 -->
<svg xmlns="http://www.w3.org/2000/svg" xml:space="preserve" width="297mm" height="210mm" version="1.1" style="shape-rendering:geometricPrecision; text-rendering:geometricPrecision; image-rendering:optimizeQuality; fill-rule:evenodd; clip-rule:evenodd"
viewBox="0 0 29700 21000"
 xmlns:xlink="http://www.w3.org/1999/xlink">
 <defs>
  <style type="text/css">
   <![CDATA[
    .str0 {stroke:#2D527C;stroke-width:253.99}
    .fil0 {fill:none}
    .fil1 {fill:#CEE8F9}
    .fil2 {fill:red}
    .fil3 {fill:#FFC107}
   ]]>
  </style>
    <clipPath id="id0">
     <path d="M-195 2759l31021 0 0 15482 -31021 0 0 -15482z"/>
    </clipPath>
 </defs>
 <g id="Layer_x0020_1">
  <metadata id="CorelCorpID_0Corel-Layer"/>
  <rect class="fil0" width="29700" height="21000"/>
  <g id="_3059538444640">
   <g style="clip-path:url(#id0)">
    <image x="-195" y="2759" width="31022" height="15482" xlink:href="Untitled-1_Images\Untitled-1_ImgID1.png"/>
   </g>
  </g>
  <path class="fil1 str0" d="M22620 14385c-2137,0 -4973,-2408 -6437,-3885 1456,-1478 4292,-3885 6437,-3885 2578,0 3885,1307 3885,3885 0,2578 -1307,3885 -3885,3885zm-15540 0c-2578,0 -3885,-1307 -3885,-3885 0,-2578 1307,-3885 3885,-3885 2137,0 4973,2408 6437,3885 -1461,1479 -4292,3885 -6437,3885zm15540 -9712c-3035,0 -6313,2939 -7770,4412 -1457,-1473 -4735,-4412 -7770,-4412 -3649,0 -5827,2178 -5827,5827 0,3649 2178,5828 5827,5828 3035,0 6313,-2940 7770,-4413 1457,1473 4735,4413 7770,4413 3649,0 5827,-2179 5827,-5828 0,-3649 -2178,-5827 -5827,-5827z"/>
  <path id="love-and-romance.svg" class="fil2" d="M9787 8420c-301,-326 -714,-506 -1163,-506 -336,0 -643,106 -913,315 -137,106 -261,235 -370,386 -109,-151 -233,-280 -369,-386 -271,-209 -578,-315 -914,-315 -449,0 -862,180 -1163,506 -297,323 -461,763 -461,1241 0,492 184,942 577,1416 352,425 858,856 1443,1355 200,171 427,364 662,570 63,54 142,84 225,84 83,0 163,-30 225,-84 235,-206 462,-399 662,-570 586,-499 1092,-930 1444,-1355 393,-474 576,-924 576,-1416 0,-478 -164,-918 -461,-1241l0 0zm0 0z"/>
  <path id="shapes-and-symbols.svg" class="fil3" d="M25251 9820c-38,-118 -143,-202 -266,-213l-1678 -152 -664 -1553c-49,-114 -160,-188 -284,-188 -124,0 -235,74 -284,188l-664 1553 -1678 152c-123,12 -228,95 -266,213 -38,117 -3,247 90,328l1269 1112 -374 1648c-28,121 19,246 120,319 54,39 117,59 181,59 55,0 109,-15 158,-44l1448 -865 1447 865c106,63 239,58 339,-15 101,-73 148,-198 121,-319l-374 -1648 1268 -1112c93,-81 129,-210 91,-328l0 0zm0 0z"/>
 </g>
</svg>
