<?xml version="1.0" standalone="no"?>
<!DOCTYPE svg PUBLIC "-//W3C//DTD SVG 20010904//EN"
 "http://www.w3.org/TR/2001/REC-SVG-20010904/DTD/svg10.dtd">
<svg version="1.0" xmlns="http://www.w3.org/2000/svg"
 width="2160.000000pt" height="2160.000000pt" viewBox="0 0 2160.000000 2160.000000"
 preserveAspectRatio="xMidYMid meet">
<metadata>
Created by potrace 1.11, written by Peter Selinger 2001-2013
</metadata>
<g transform="translate(0.000000,2160.000000) scale(0.100000,-0.100000)"
fill="#000000" stroke="none">
<path d="M10672 19514 c-77 -38 -178 -154 -317 -364 -231 -349 -656 -1002
-653 -1005 2 -1 91 -13 198 -25 107 -12 199 -26 203 -30 10 -9 -86 -140 -463
-635 -437 -575 -649 -867 -807 -1115 -107 -169 -145 -237 -135 -244 16 -10
221 -35 362 -45 80 -6 281 -13 447 -17 l302 -7 -31 -46 c-63 -92 -132 -178
-302 -380 -96 -113 -213 -253 -261 -311 -86 -104 -346 -385 -645 -695 -310
-323 -623 -729 -715 -928 -41 -88 -75 -211 -75 -268 l0 -38 65 -20 c123 -38
301 -62 610 -81 187 -11 383 -29 403 -35 18 -6 -49 -101 -208 -296 -141 -173
-282 -319 -481 -497 -252 -225 -652 -674 -1093 -1225 -44 -54 -82 -96 -86 -95
-4 2 -158 182 -343 400 l-335 397 56 6 c120 12 279 47 337 74 125 58 175 129
175 248 0 178 -120 401 -389 728 -36 43 -254 295 -485 560 l-418 480 151 7
c149 7 312 28 382 48 20 6 52 21 70 33 33 22 34 25 34 88 0 56 -6 76 -47 159
-84 171 -280 454 -598 860 -195 250 -265 350 -250 360 7 4 35 11 61 14 86 12
176 45 198 72 65 82 18 245 -127 440 -282 381 -554 684 -662 736 -221 105
-392 -17 -870 -617 -335 -421 -343 -561 -36 -621 56 -11 83 -21 79 -28 -4 -6
-50 -67 -103 -136 -398 -516 -782 -1100 -806 -1227 -17 -90 113 -148 390 -173
66 -7 153 -15 193 -18 l71 -7 -112 -135 c-62 -74 -197 -223 -301 -330 -555
-574 -803 -917 -855 -1188 -32 -160 24 -274 166 -339 46 -21 175 -46 360 -70
l62 -8 -130 -155 c-153 -182 -308 -359 -696 -792 -591 -661 -807 -929 -972
-1207 -239 -402 -235 -689 12 -864 204 -144 490 -220 1018 -269 185 -17 1052
-17 1655 1 646 19 1793 17 2405 -5 421 -15 927 -17 4475 -16 5143 0 4830 -1
5195 11 751 26 1530 32 2165 19 1258 -26 1689 -12 2030 69 223 52 348 122 420
234 90 139 69 376 -55 646 -109 236 -332 561 -622 909 -244 292 -770 916 -976
1159 -224 262 -218 251 -121 254 67 2 207 31 278 57 81 30 152 87 183 148 17
31 22 59 22 116 0 124 -53 256 -181 449 -110 165 -147 209 -876 1046 l-235
270 149 7 c241 12 413 44 469 87 21 17 25 28 24 73 -2 141 -196 448 -638 1012
-78 99 -172 224 -209 276 -69 97 -71 110 -18 110 38 0 152 30 193 51 109 55
62 259 -113 489 -168 220 -388 489 -464 566 -286 289 -449 246 -851 -226 -224
-263 -371 -462 -423 -570 -41 -86 -47 -157 -17 -202 25 -38 107 -75 208 -95
l86 -17 -55 -70 c-363 -462 -763 -1052 -844 -1246 -28 -65 -29 -72 -15 -103
26 -64 159 -108 387 -127 68 -6 155 -14 193 -18 l69 -7 -108 -130 c-60 -71
-202 -227 -316 -345 -412 -428 -622 -687 -752 -930 -165 -306 -126 -520 107
-600 54 -18 176 -39 329 -55 52 -6 56 -8 45 -24 -52 -74 -774 -901 -819 -938
-12 -10 -27 6 -89 90 -227 312 -483 627 -905 1112 -143 165 -326 379 -405 475
-79 96 -191 228 -249 293 -58 66 -130 151 -160 190 l-54 72 59 7 c32 3 169 11
304 17 543 25 640 42 700 118 19 24 21 37 17 88 -10 138 -153 349 -576 854
-108 128 -227 272 -266 320 -112 138 -596 691 -766 876 -261 283 -374 417
-439 521 l-20 31 380 7 c210 4 429 11 488 16 157 14 262 31 262 42 0 17 -98
185 -177 306 -85 129 -227 319 -512 687 -273 351 -485 639 -609 825 l-104 154
242 32 c133 18 244 34 247 38 14 13 -54 99 -146 184 -125 116 -194 202 -374
467 -444 656 -629 817 -825 719z"/>
<path d="M10100 7814 c-959 -33 -1526 -72 -2275 -155 -745 -83 -1649 -225
-2121 -334 -263 -61 -404 -90 -544 -110 -241 -35 -446 -85 -765 -189 -93 -30
-287 -89 -430 -131 -935 -273 -1845 -651 -2490 -1035 -252 -150 -542 -358
-685 -490 l-55 -51 65 6 c36 3 159 22 275 42 198 33 319 57 1100 218 975 201
2751 449 4190 584 1034 98 1864 151 3115 202 428 17 2080 23 2880 10 2052 -33
3242 -81 4440 -182 687 -57 1046 -105 1600 -214 304 -59 524 -94 980 -155 168
-22 508 -69 755 -105 652 -93 731 -100 723 -58 -4 23 -67 54 -618 309 -1024
475 -1313 592 -1985 800 -573 178 -977 283 -1365 354 -330 61 -486 100 -725
180 -296 99 -394 121 -765 164 -118 14 -296 37 -395 50 -936 128 -2061 227
-3160 276 -221 10 -1549 21 -1745 14z"/>
<path d="M13370 5829 c-1087 -28 -2102 -87 -3220 -189 -239 -22 -523 -46 -630
-55 -399 -31 -547 -67 -672 -162 -58 -43 -115 -127 -138 -200 -25 -80 -21 -86
66 -113 175 -54 480 -74 1124 -73 822 0 1555 31 3645 153 468 27 1012 56 1210
65 198 8 448 22 555 30 426 33 511 36 970 33 442 -3 487 -1 655 19 404 51 797
63 2050 63 1168 0 1762 16 1850 50 78 30 -32 69 -300 106 -66 9 -257 18 -475
24 -364 9 -641 27 -1135 75 -1210 117 -1297 123 -2240 155 -892 30 -2533 39
-3315 19z"/>
<path d="M19593 4506 c-145 -23 -264 -44 -266 -47 -3 -2 0 -62 6 -134 14 -179
14 -1750 0 -1935 -6 -80 -9 -147 -6 -150 16 -17 874 9 1233 38 l84 7 18 57
c29 97 48 258 48 412 0 80 -4 146 -9 146 -5 0 -25 -7 -45 -15 -111 -47 -382
-97 -586 -110 -52 -3 -122 -8 -156 -11 l-61 -5 8 51 c11 72 37 295 54 480 22
223 30 944 13 1120 l-13 135 -30 2 c-16 0 -148 -18 -292 -41z"/>
<path d="M3575 4524 c-35 -4 -189 -22 -667 -78 -60 -7 -109 -15 -111 -17 -7
-8 -120 -569 -116 -573 2 -2 84 3 182 11 98 8 181 12 184 9 3 -3 -2 -74 -11
-158 -33 -323 -56 -812 -56 -1225 l0 -243 298 0 299 0 -4 73 c-7 148 -23 594
-23 646 l0 55 58 -85 c160 -234 341 -449 579 -686 106 -106 200 -193 208 -193
8 0 95 101 194 224 l179 223 -91 74 c-125 101 -398 376 -475 478 l-64 85 62
27 c143 65 282 186 348 300 93 164 113 399 51 587 -51 152 -196 306 -364 387
-142 68 -190 77 -420 80 -110 2 -218 1 -240 -1z m335 -515 c115 -54 161 -121
163 -237 1 -51 -4 -79 -22 -115 -55 -113 -225 -200 -438 -225 l-73 -8 0 255
c0 141 3 273 6 293 6 34 9 37 63 52 88 24 232 17 301 -15z"/>
<path d="M6660 4523 c-25 -2 -133 -14 -240 -28 -107 -13 -266 -31 -352 -41
-87 -10 -163 -21 -169 -24 -9 -6 -134 -559 -127 -565 2 -2 86 10 187 27 101
16 185 27 186 26 1 -2 -5 -82 -15 -178 -31 -300 -60 -953 -60 -1337 l0 -153
300 0 300 0 0 33 c0 17 -7 225 -15 461 -8 237 -13 431 -11 433 2 2 47 -60 101
-137 l97 -139 47 5 c277 34 479 119 616 259 79 80 126 154 162 252 46 127 57
197 57 373 0 153 -2 171 -27 247 -51 152 -162 288 -308 374 -81 48 -206 94
-299 108 -60 10 -326 12 -430 4z m325 -514 c134 -41 215 -160 202 -299 -17
-192 -190 -317 -475 -344 l-72 -7 2 323 3 323 50 11 c84 20 214 17 290 -7z"/>
<path d="M5360 4510 c-41 -4 -156 -15 -255 -25 -99 -9 -180 -17 -181 -18 0 -1
4 -45 9 -97 5 -52 10 -516 11 -1030 1 -514 5 -975 10 -1023 l9 -88 41 5 c23 3
147 13 276 22 129 9 236 17 237 18 2 2 -2 72 -7 157 -11 165 -3 429 26 854 18
266 23 974 8 1135 l-9 95 -50 1 c-27 1 -84 -2 -125 -6z"/>
<path d="M1130 4500 c-126 -8 -187 -18 -196 -31 -3 -5 -14 -54 -25 -109 -14
-74 -19 -143 -19 -260 l0 -160 68 0 c37 0 153 7 258 16 105 10 198 14 208 11
14 -6 16 -41 15 -374 -1 -202 -4 -494 -8 -648 -5 -216 4 -702 13 -711 0 -1
116 6 256 17 140 10 270 18 289 19 l34 0 -7 313 c-4 171 -11 380 -16 462 -5
83 -12 327 -16 543 l-7 392 124 0 c128 0 401 -17 432 -26 15 -5 17 4 17 93 0
54 -5 173 -12 265 -12 167 -12 167 -38 173 -23 5 -1142 26 -1220 23 -19 0 -87
-4 -150 -8z"/>
<path d="M10107 4495 c-302 -51 -599 -246 -777 -510 -120 -177 -169 -334 -177
-563 -6 -169 4 -259 44 -387 114 -362 453 -678 831 -774 326 -84 663 -27 944
159 346 228 529 555 530 945 1 328 -110 587 -348 816 -179 171 -380 273 -618
314 -107 18 -320 18 -429 0z m415 -507 c93 -35 152 -76 240 -165 119 -123 171
-248 171 -413 0 -157 -49 -286 -153 -401 -225 -250 -577 -287 -843 -88 -98 73
-190 213 -222 336 -20 75 -19 229 1 306 53 207 236 390 440 442 93 23 280 14
366 -17z"/>
<path d="M18090 4495 c-101 -21 -354 -86 -362 -93 -4 -4 11 -36 33 -72 22 -36
56 -95 75 -132 l34 -67 -44 -68 c-109 -170 -234 -407 -332 -628 -47 -106 -56
-120 -76 -118 -13 1 -110 12 -216 24 -106 12 -194 20 -197 18 -5 -5 -46 -491
-42 -495 1 -1 65 -10 142 -20 77 -9 141 -18 143 -20 2 -1 -15 -53 -38 -115
-38 -103 -125 -408 -118 -414 4 -3 602 -64 605 -61 1 1 18 81 37 177 35 172
80 347 94 361 4 4 27 2 52 -3 38 -9 381 -7 494 3 l30 3 73 -254 c40 -140 78
-258 85 -262 7 -4 44 -16 83 -26 93 -23 241 -23 320 1 86 26 155 57 155 70 0
6 -11 64 -25 130 -123 590 -371 1195 -783 1908 -110 190 -93 178 -222 153z
m112 -1108 c22 -66 38 -120 36 -122 -5 -5 -217 -25 -264 -25 l-42 0 19 63 c10
34 45 131 76 216 l58 154 39 -84 c21 -46 56 -137 78 -202z"/>
<path d="M15685 4489 c-258 -3 -484 -7 -501 -8 l-32 -1 -7 -255 c-4 -141 -6
-257 -4 -259 2 -2 36 2 74 10 39 7 103 13 144 14 l74 0 -7 -112 c-11 -211 -18
-1449 -8 -1546 5 -51 11 -95 13 -97 2 -2 94 9 204 23 177 23 233 26 495 26
307 0 416 -9 631 -53 51 -11 95 -18 96 -17 8 8 72 461 66 467 -12 12 -207 47
-328 59 -65 7 -228 10 -398 8 l-289 -3 6 105 c4 58 9 148 12 201 l6 97 30 6
c59 12 475 18 573 8 55 -5 101 -9 103 -7 18 17 69 283 78 408 l7 87 -324 -1
c-178 0 -355 -3 -392 -8 l-69 -7 6 105 c4 58 9 145 12 193 l6 87 57 7 c90 12
649 10 706 -3 27 -6 51 -10 52 -9 2 1 33 458 33 480 0 7 -441 5 -1125 -5z"/>
<path d="M12860 4475 c0 -19 48 -430 55 -472 l6 -33 131 0 131 0 -7 -322 c-13
-589 -32 -851 -91 -1232 -14 -88 -25 -164 -25 -168 0 -12 724 -10 865 3 309
27 521 113 705 286 98 92 157 172 211 288 103 218 134 532 79 786 -42 194
-128 353 -271 503 -128 134 -245 212 -409 270 -179 65 -258 74 -790 91 -571
19 -590 19 -590 0z m1110 -550 c213 -48 337 -168 387 -372 23 -94 23 -323 -1
-417 -33 -139 -112 -242 -219 -291 -89 -41 -196 -63 -387 -78 l-55 -5 0 595 0
596 100 -6 c55 -3 134 -13 175 -22z"/>
<path d="M8460 3399 c-36 -4 -159 -15 -273 -22 -114 -8 -210 -17 -212 -19 -3
-3 -35 -390 -35 -422 0 -8 150 3 295 22 135 17 627 24 692 10 l31 -7 7 83 c6
75 -8 307 -21 341 -3 7 -32 15 -72 19 -90 8 -331 5 -412 -5z"/>
<path d="M12200 3400 c-36 -5 -159 -16 -273 -23 -114 -8 -210 -16 -211 -18 -2
-2 -9 -80 -15 -174 -6 -93 -14 -189 -17 -212 l-5 -42 88 5 c48 3 140 13 203
21 140 19 582 29 665 15 33 -6 62 -8 65 -6 20 20 2 406 -20 428 -12 12 -399
17 -480 6z"/>
</g>
</svg>
